<?xml version="1.0" encoding="utf-8" standalone="no"?>
<!DOCTYPE svg PUBLIC "-//W3C//DTD SVG 1.1//EN"
  "http://www.w3.org/Graphics/SVG/1.1/DTD/svg11.dtd">
<svg xmlns:xlink="http://www.w3.org/1999/xlink" width="672.420969pt" height="289.159219pt" viewBox="0 0 672.420969 289.159219" xmlns="http://www.w3.org/2000/svg" version="1.1">
 <metadata>
  <rdf:RDF xmlns:dc="http://purl.org/dc/elements/1.1/" xmlns:cc="http://creativecommons.org/ns#" xmlns:rdf="http://www.w3.org/1999/02/22-rdf-syntax-ns#">
   <cc:Work>
    <dc:type rdf:resource="http://purl.org/dc/dcmitype/StillImage"/>
    <dc:date>2026-07-18T16:43:49.526186</dc:date>
    <dc:format>image/svg+xml</dc:format>
    <dc:creator>
     <cc:Agent>
      <dc:title>Matplotlib v3.10.8, https://matplotlib.org/</dc:title>
     </cc:Agent>
    </dc:creator>
   </cc:Work>
  </rdf:RDF>
 </metadata>
 <defs>
  <style type="text/css">*{stroke-linejoin: round; stroke-linecap: butt}</style>
 </defs>
 <g id="figure_1">
  <g id="patch_1">
   <path d="M 0 289.159219 
L 672.420969 289.159219 
L 672.420969 0 
L 0 0 
z
" style="fill: #ffffff"/>
  </g>
  <g id="axes_1">
   <g id="patch_2">
    <path d="M 51.702969 253.578125 
L 331.905969 253.578125 
L 331.905969 20.838125 
L 51.702969 20.838125 
z
" style="fill: #ffffff"/>
   </g>
   <g id="line2d_1">
    <path d="M 51.702969 31.62351 
L 331.905969 31.62351 
" clip-path="url(#p2d8810d0b7)" style="fill: none; stroke: #b2b2b2; stroke-width: 0.7; stroke-linecap: square"/>
   </g>
   <g id="matplotlib.axis_1">
    <g id="xtick_1">
     <g id="line2d_2">
      <defs>
       <path id="m186465897a" d="M 0 0 
L 0 -3.5 
" style="stroke: #000000; stroke-width: 0.8"/>
      </defs>
      <g>
       <use xlink:href="#m186465897a" x="91.32132" y="253.578125" style="stroke: #000000; stroke-width: 0.8"/>
      </g>
     </g>
     <g id="text_1">
      <!-- 0.1 -->
      <g transform="translate(84.44632 264.71625) scale(0.11 -0.11)">
       <defs>
        <path id="TimesNewRomanPSMT-30" d="M 231 2094 
Q 231 2819 450 3342 
Q 669 3866 1031 4122 
Q 1313 4325 1613 4325 
Q 2100 4325 2488 3828 
Q 2972 3213 2972 2159 
Q 2972 1422 2759 906 
Q 2547 391 2217 158 
Q 1888 -75 1581 -75 
Q 975 -75 572 641 
Q 231 1244 231 2094 
z
M 844 2016 
Q 844 1141 1059 588 
Q 1238 122 1591 122 
Q 1759 122 1940 273 
Q 2122 425 2216 781 
Q 2359 1319 2359 2297 
Q 2359 3022 2209 3506 
Q 2097 3866 1919 4016 
Q 1791 4119 1609 4119 
Q 1397 4119 1231 3928 
Q 1006 3669 925 3112 
Q 844 2556 844 2016 
z
" transform="scale(0.015625)"/>
        <path id="TimesNewRomanPSMT-2e" d="M 800 606 
Q 947 606 1047 504 
Q 1147 403 1147 259 
Q 1147 116 1045 14 
Q 944 -88 800 -88 
Q 656 -88 554 14 
Q 453 116 453 259 
Q 453 406 554 506 
Q 656 606 800 606 
z
" transform="scale(0.015625)"/>
        <path id="TimesNewRomanPSMT-31" d="M 750 3822 
L 1781 4325 
L 1884 4325 
L 1884 747 
Q 1884 391 1914 303 
Q 1944 216 2037 169 
Q 2131 122 2419 116 
L 2419 0 
L 825 0 
L 825 116 
Q 1125 122 1212 167 
Q 1300 213 1334 289 
Q 1369 366 1369 747 
L 1369 3034 
Q 1369 3497 1338 3628 
Q 1316 3728 1258 3775 
Q 1200 3822 1119 3822 
Q 1003 3822 797 3725 
L 750 3822 
z
" transform="scale(0.015625)"/>
       </defs>
       <use xlink:href="#TimesNewRomanPSMT-30"/>
       <use xlink:href="#TimesNewRomanPSMT-2e" transform="translate(50 0)"/>
       <use xlink:href="#TimesNewRomanPSMT-31" transform="translate(75 0)"/>
      </g>
     </g>
    </g>
    <g id="xtick_2">
     <g id="line2d_3">
      <g>
       <use xlink:href="#m186465897a" x="140.581946" y="253.578125" style="stroke: #000000; stroke-width: 0.8"/>
      </g>
     </g>
     <g id="text_2">
      <!-- 0.2 -->
      <g transform="translate(133.706946 264.71625) scale(0.11 -0.11)">
       <defs>
        <path id="TimesNewRomanPSMT-32" d="M 2934 816 
L 2638 0 
L 138 0 
L 138 116 
Q 1241 1122 1691 1759 
Q 2141 2397 2141 2925 
Q 2141 3328 1894 3587 
Q 1647 3847 1303 3847 
Q 991 3847 742 3664 
Q 494 3481 375 3128 
L 259 3128 
Q 338 3706 661 4015 
Q 984 4325 1469 4325 
Q 1984 4325 2329 3994 
Q 2675 3663 2675 3213 
Q 2675 2891 2525 2569 
Q 2294 2063 1775 1497 
Q 997 647 803 472 
L 1909 472 
Q 2247 472 2383 497 
Q 2519 522 2628 598 
Q 2738 675 2819 816 
L 2934 816 
z
" transform="scale(0.015625)"/>
       </defs>
       <use xlink:href="#TimesNewRomanPSMT-30"/>
       <use xlink:href="#TimesNewRomanPSMT-2e" transform="translate(50 0)"/>
       <use xlink:href="#TimesNewRomanPSMT-32" transform="translate(75 0)"/>
      </g>
     </g>
    </g>
    <g id="xtick_3">
     <g id="line2d_4">
      <g>
       <use xlink:href="#m186465897a" x="189.842573" y="253.578125" style="stroke: #000000; stroke-width: 0.8"/>
      </g>
     </g>
     <g id="text_3">
      <!-- 0.3 -->
      <g transform="translate(182.967573 264.71625) scale(0.11 -0.11)">
       <defs>
        <path id="TimesNewRomanPSMT-33" d="M 325 3431 
Q 506 3859 782 4092 
Q 1059 4325 1472 4325 
Q 1981 4325 2253 3994 
Q 2459 3747 2459 3466 
Q 2459 3003 1878 2509 
Q 2269 2356 2469 2072 
Q 2669 1788 2669 1403 
Q 2669 853 2319 450 
Q 1863 -75 997 -75 
Q 569 -75 414 31 
Q 259 138 259 259 
Q 259 350 332 419 
Q 406 488 509 488 
Q 588 488 669 463 
Q 722 447 909 348 
Q 1097 250 1169 231 
Q 1284 197 1416 197 
Q 1734 197 1970 444 
Q 2206 691 2206 1028 
Q 2206 1275 2097 1509 
Q 2016 1684 1919 1775 
Q 1784 1900 1550 2001 
Q 1316 2103 1072 2103 
L 972 2103 
L 972 2197 
Q 1219 2228 1467 2375 
Q 1716 2522 1828 2728 
Q 1941 2934 1941 3181 
Q 1941 3503 1739 3701 
Q 1538 3900 1238 3900 
Q 753 3900 428 3381 
L 325 3431 
z
" transform="scale(0.015625)"/>
       </defs>
       <use xlink:href="#TimesNewRomanPSMT-30"/>
       <use xlink:href="#TimesNewRomanPSMT-2e" transform="translate(50 0)"/>
       <use xlink:href="#TimesNewRomanPSMT-33" transform="translate(75 0)"/>
      </g>
     </g>
    </g>
    <g id="xtick_4">
     <g id="line2d_5">
      <g>
       <use xlink:href="#m186465897a" x="239.1032" y="253.578125" style="stroke: #000000; stroke-width: 0.8"/>
      </g>
     </g>
     <g id="text_4">
      <!-- 0.4 -->
      <g transform="translate(232.2282 264.71625) scale(0.11 -0.11)">
       <defs>
        <path id="TimesNewRomanPSMT-34" d="M 2978 1563 
L 2978 1119 
L 2409 1119 
L 2409 0 
L 1894 0 
L 1894 1119 
L 100 1119 
L 100 1519 
L 2066 4325 
L 2409 4325 
L 2409 1563 
L 2978 1563 
z
M 1894 1563 
L 1894 3666 
L 406 1563 
L 1894 1563 
z
" transform="scale(0.015625)"/>
       </defs>
       <use xlink:href="#TimesNewRomanPSMT-30"/>
       <use xlink:href="#TimesNewRomanPSMT-2e" transform="translate(50 0)"/>
       <use xlink:href="#TimesNewRomanPSMT-34" transform="translate(75 0)"/>
      </g>
     </g>
    </g>
    <g id="xtick_5">
     <g id="line2d_6">
      <g>
       <use xlink:href="#m186465897a" x="288.363827" y="253.578125" style="stroke: #000000; stroke-width: 0.8"/>
      </g>
     </g>
     <g id="text_5">
      <!-- 0.5 -->
      <g transform="translate(281.488827 264.71625) scale(0.11 -0.11)">
       <defs>
        <path id="TimesNewRomanPSMT-35" d="M 2778 4238 
L 2534 3706 
L 1259 3706 
L 981 3138 
Q 1809 3016 2294 2522 
Q 2709 2097 2709 1522 
Q 2709 1188 2573 903 
Q 2438 619 2231 419 
Q 2025 219 1772 97 
Q 1413 -75 1034 -75 
Q 653 -75 479 54 
Q 306 184 306 341 
Q 306 428 378 495 
Q 450 563 559 563 
Q 641 563 702 538 
Q 763 513 909 409 
Q 1144 247 1384 247 
Q 1750 247 2026 523 
Q 2303 800 2303 1197 
Q 2303 1581 2056 1914 
Q 1809 2247 1375 2428 
Q 1034 2569 447 2591 
L 1259 4238 
L 2778 4238 
z
" transform="scale(0.015625)"/>
       </defs>
       <use xlink:href="#TimesNewRomanPSMT-30"/>
       <use xlink:href="#TimesNewRomanPSMT-2e" transform="translate(50 0)"/>
       <use xlink:href="#TimesNewRomanPSMT-35" transform="translate(75 0)"/>
      </g>
     </g>
    </g>
    <g id="text_6">
     <!-- Local heterophily $h_i = 1-\overline{\rho}_{\mathrm{neigh}}$ -->
     <g transform="translate(122.284469 278.769219) scale(0.11 -0.11)">
      <defs>
       <path id="TimesNewRomanPSMT-4c" d="M 3669 1172 
L 3772 1150 
L 3409 0 
L 128 0 
L 128 116 
L 288 116 
Q 556 116 672 291 
Q 738 391 738 753 
L 738 3488 
Q 738 3884 650 3984 
Q 528 4122 288 4122 
L 128 4122 
L 128 4238 
L 2047 4238 
L 2047 4122 
Q 1709 4125 1573 4059 
Q 1438 3994 1388 3894 
Q 1338 3794 1338 3416 
L 1338 753 
Q 1338 494 1388 397 
Q 1425 331 1503 300 
Q 1581 269 1991 269 
L 2300 269 
Q 2788 269 2984 341 
Q 3181 413 3343 595 
Q 3506 778 3669 1172 
z
" transform="scale(0.015625)"/>
       <path id="TimesNewRomanPSMT-6f" d="M 1600 2947 
Q 2250 2947 2644 2453 
Q 2978 2031 2978 1484 
Q 2978 1100 2793 706 
Q 2609 313 2286 112 
Q 1963 -88 1566 -88 
Q 919 -88 538 428 
Q 216 863 216 1403 
Q 216 1797 411 2186 
Q 606 2575 925 2761 
Q 1244 2947 1600 2947 
z
M 1503 2744 
Q 1338 2744 1170 2645 
Q 1003 2547 900 2300 
Q 797 2053 797 1666 
Q 797 1041 1045 587 
Q 1294 134 1700 134 
Q 2003 134 2200 384 
Q 2397 634 2397 1244 
Q 2397 2006 2069 2444 
Q 1847 2744 1503 2744 
z
" transform="scale(0.015625)"/>
       <path id="TimesNewRomanPSMT-63" d="M 2631 1088 
Q 2516 522 2178 217 
Q 1841 -88 1431 -88 
Q 944 -88 581 321 
Q 219 731 219 1428 
Q 219 2103 620 2525 
Q 1022 2947 1584 2947 
Q 2006 2947 2278 2723 
Q 2550 2500 2550 2259 
Q 2550 2141 2473 2067 
Q 2397 1994 2259 1994 
Q 2075 1994 1981 2113 
Q 1928 2178 1911 2362 
Q 1894 2547 1784 2644 
Q 1675 2738 1481 2738 
Q 1169 2738 978 2506 
Q 725 2200 725 1697 
Q 725 1184 976 792 
Q 1228 400 1656 400 
Q 1963 400 2206 609 
Q 2378 753 2541 1131 
L 2631 1088 
z
" transform="scale(0.015625)"/>
       <path id="TimesNewRomanPSMT-61" d="M 1822 413 
Q 1381 72 1269 19 
Q 1100 -59 909 -59 
Q 613 -59 420 144 
Q 228 347 228 678 
Q 228 888 322 1041 
Q 450 1253 767 1440 
Q 1084 1628 1822 1897 
L 1822 2009 
Q 1822 2438 1686 2597 
Q 1550 2756 1291 2756 
Q 1094 2756 978 2650 
Q 859 2544 859 2406 
L 866 2225 
Q 866 2081 792 2003 
Q 719 1925 600 1925 
Q 484 1925 411 2006 
Q 338 2088 338 2228 
Q 338 2497 613 2722 
Q 888 2947 1384 2947 
Q 1766 2947 2009 2819 
Q 2194 2722 2281 2516 
Q 2338 2381 2338 1966 
L 2338 994 
Q 2338 584 2353 492 
Q 2369 400 2405 369 
Q 2441 338 2488 338 
Q 2538 338 2575 359 
Q 2641 400 2828 588 
L 2828 413 
Q 2478 -56 2159 -56 
Q 2006 -56 1915 50 
Q 1825 156 1822 413 
z
M 1822 616 
L 1822 1706 
Q 1350 1519 1213 1441 
Q 966 1303 859 1153 
Q 753 1003 753 825 
Q 753 600 887 451 
Q 1022 303 1197 303 
Q 1434 303 1822 616 
z
" transform="scale(0.015625)"/>
       <path id="TimesNewRomanPSMT-6c" d="M 1184 4444 
L 1184 647 
Q 1184 378 1223 290 
Q 1263 203 1344 158 
Q 1425 113 1647 113 
L 1647 0 
L 244 0 
L 244 113 
Q 441 113 512 153 
Q 584 194 625 287 
Q 666 381 666 647 
L 666 3247 
Q 666 3731 644 3842 
Q 622 3953 573 3993 
Q 525 4034 450 4034 
Q 369 4034 244 3984 
L 191 4094 
L 1044 4444 
L 1184 4444 
z
" transform="scale(0.015625)"/>
       <path id="TimesNewRomanPSMT-20" transform="scale(0.015625)"/>
       <path id="TimesNewRomanPSMT-68" d="M 1041 4444 
L 1041 2350 
Q 1388 2731 1591 2839 
Q 1794 2947 1997 2947 
Q 2241 2947 2416 2812 
Q 2591 2678 2675 2391 
Q 2734 2191 2734 1659 
L 2734 647 
Q 2734 375 2778 275 
Q 2809 200 2884 156 
Q 2959 113 3159 113 
L 3159 0 
L 1753 0 
L 1753 113 
L 1819 113 
Q 2019 113 2097 173 
Q 2175 234 2206 353 
Q 2216 403 2216 647 
L 2216 1659 
Q 2216 2128 2167 2275 
Q 2119 2422 2012 2495 
Q 1906 2569 1756 2569 
Q 1603 2569 1437 2487 
Q 1272 2406 1041 2159 
L 1041 647 
Q 1041 353 1073 281 
Q 1106 209 1195 161 
Q 1284 113 1503 113 
L 1503 0 
L 84 0 
L 84 113 
Q 275 113 384 172 
Q 447 203 484 290 
Q 522 378 522 647 
L 522 3238 
Q 522 3728 498 3840 
Q 475 3953 426 3993 
Q 378 4034 297 4034 
Q 231 4034 84 3984 
L 41 4094 
L 897 4444 
L 1041 4444 
z
" transform="scale(0.015625)"/>
       <path id="TimesNewRomanPSMT-65" d="M 681 1784 
Q 678 1147 991 784 
Q 1303 422 1725 422 
Q 2006 422 2214 576 
Q 2422 731 2563 1106 
L 2659 1044 
Q 2594 616 2278 264 
Q 1963 -88 1488 -88 
Q 972 -88 605 314 
Q 238 716 238 1394 
Q 238 2128 614 2539 
Q 991 2950 1559 2950 
Q 2041 2950 2350 2633 
Q 2659 2316 2659 1784 
L 681 1784 
z
M 681 1966 
L 2006 1966 
Q 1991 2241 1941 2353 
Q 1863 2528 1708 2628 
Q 1553 2728 1384 2728 
Q 1125 2728 920 2526 
Q 716 2325 681 1966 
z
" transform="scale(0.015625)"/>
       <path id="TimesNewRomanPSMT-74" d="M 1031 3803 
L 1031 2863 
L 1700 2863 
L 1700 2644 
L 1031 2644 
L 1031 788 
Q 1031 509 1111 412 
Q 1191 316 1316 316 
Q 1419 316 1516 380 
Q 1613 444 1666 569 
L 1788 569 
Q 1678 263 1478 108 
Q 1278 -47 1066 -47 
Q 922 -47 784 33 
Q 647 113 581 261 
Q 516 409 516 719 
L 516 2644 
L 63 2644 
L 63 2747 
Q 234 2816 414 2980 
Q 594 3144 734 3369 
Q 806 3488 934 3803 
L 1031 3803 
z
" transform="scale(0.015625)"/>
       <path id="TimesNewRomanPSMT-72" d="M 1038 2947 
L 1038 2303 
Q 1397 2947 1775 2947 
Q 1947 2947 2059 2842 
Q 2172 2738 2172 2600 
Q 2172 2478 2090 2393 
Q 2009 2309 1897 2309 
Q 1788 2309 1652 2417 
Q 1516 2525 1450 2525 
Q 1394 2525 1328 2463 
Q 1188 2334 1038 2041 
L 1038 669 
Q 1038 431 1097 309 
Q 1138 225 1241 169 
Q 1344 113 1538 113 
L 1538 0 
L 72 0 
L 72 113 
Q 291 113 397 181 
Q 475 231 506 341 
Q 522 394 522 644 
L 522 1753 
Q 522 2253 501 2348 
Q 481 2444 426 2487 
Q 372 2531 291 2531 
Q 194 2531 72 2484 
L 41 2597 
L 906 2947 
L 1038 2947 
z
" transform="scale(0.015625)"/>
       <path id="TimesNewRomanPSMT-70" d="M -6 2578 
L 875 2934 
L 994 2934 
L 994 2266 
Q 1216 2644 1439 2795 
Q 1663 2947 1909 2947 
Q 2341 2947 2628 2609 
Q 2981 2197 2981 1534 
Q 2981 794 2556 309 
Q 2206 -88 1675 -88 
Q 1444 -88 1275 -22 
Q 1150 25 994 166 
L 994 -706 
Q 994 -1000 1030 -1079 
Q 1066 -1159 1155 -1206 
Q 1244 -1253 1478 -1253 
L 1478 -1369 
L -22 -1369 
L -22 -1253 
L 56 -1253 
Q 228 -1256 350 -1188 
Q 409 -1153 442 -1076 
Q 475 -1000 475 -688 
L 475 2019 
Q 475 2297 450 2372 
Q 425 2447 370 2484 
Q 316 2522 222 2522 
Q 147 2522 31 2478 
L -6 2578 
z
M 994 2081 
L 994 1013 
Q 994 666 1022 556 
Q 1066 375 1236 237 
Q 1406 100 1666 100 
Q 1978 100 2172 344 
Q 2425 663 2425 1241 
Q 2425 1897 2138 2250 
Q 1938 2494 1663 2494 
Q 1513 2494 1366 2419 
Q 1253 2363 994 2081 
z
" transform="scale(0.015625)"/>
       <path id="TimesNewRomanPSMT-69" d="M 928 4444 
Q 1059 4444 1151 4351 
Q 1244 4259 1244 4128 
Q 1244 3997 1151 3903 
Q 1059 3809 928 3809 
Q 797 3809 703 3903 
Q 609 3997 609 4128 
Q 609 4259 701 4351 
Q 794 4444 928 4444 
z
M 1188 2947 
L 1188 647 
Q 1188 378 1227 289 
Q 1266 200 1342 156 
Q 1419 113 1622 113 
L 1622 0 
L 231 0 
L 231 113 
Q 441 113 512 153 
Q 584 194 626 287 
Q 669 381 669 647 
L 669 1750 
Q 669 2216 641 2353 
Q 619 2453 572 2492 
Q 525 2531 444 2531 
Q 356 2531 231 2484 
L 188 2597 
L 1050 2947 
L 1188 2947 
z
" transform="scale(0.015625)"/>
       <path id="TimesNewRomanPSMT-79" d="M 38 2863 
L 1372 2863 
L 1372 2747 
L 1306 2747 
Q 1166 2747 1095 2686 
Q 1025 2625 1025 2534 
Q 1025 2413 1128 2197 
L 1825 753 
L 2466 2334 
Q 2519 2463 2519 2588 
Q 2519 2644 2497 2672 
Q 2472 2706 2419 2726 
Q 2366 2747 2231 2747 
L 2231 2863 
L 3163 2863 
L 3163 2747 
Q 3047 2734 2984 2696 
Q 2922 2659 2847 2556 
Q 2819 2513 2741 2316 
L 1575 -541 
Q 1406 -956 1132 -1168 
Q 859 -1381 606 -1381 
Q 422 -1381 303 -1275 
Q 184 -1169 184 -1031 
Q 184 -900 270 -820 
Q 356 -741 506 -741 
Q 609 -741 788 -809 
Q 913 -856 944 -856 
Q 1038 -856 1148 -759 
Q 1259 -663 1372 -384 
L 1575 113 
L 547 2272 
Q 500 2369 397 2513 
Q 319 2622 269 2659 
Q 197 2709 38 2747 
L 38 2863 
z
" transform="scale(0.015625)"/>
       <path id="STIXGeneral-Italic-68" d="M 2976 755 
L 3059 672 
Q 2765 256 2566 99 
Q 2368 -58 2125 -58 
Q 1997 -58 1920 16 
Q 1843 90 1843 211 
Q 1843 320 1971 800 
L 2323 2125 
Q 2368 2304 2368 2336 
Q 2368 2496 2189 2496 
Q 2016 2496 1744 2240 
Q 1472 1984 1216 1600 
Q 1018 1293 902 1001 
Q 787 710 602 0 
L 122 0 
L 1056 3546 
Q 1139 3866 1139 3942 
Q 1139 4019 1056 4060 
Q 973 4102 877 4102 
L 704 4102 
L 704 4198 
Q 1190 4256 1709 4371 
L 1754 4333 
L 979 1472 
Q 1811 2822 2451 2822 
Q 2662 2822 2764 2704 
Q 2867 2586 2867 2394 
Q 2867 2118 2560 1158 
Q 2349 512 2349 358 
Q 2349 243 2451 243 
Q 2528 243 2621 336 
Q 2714 429 2976 755 
z
" transform="scale(0.015625)"/>
       <path id="STIXGeneral-Italic-69" d="M 1690 3834 
Q 1690 3699 1597 3603 
Q 1504 3507 1376 3507 
Q 1235 3507 1152 3600 
Q 1069 3693 1069 3846 
Q 1069 3994 1155 4090 
Q 1242 4186 1370 4186 
Q 1498 4186 1594 4080 
Q 1690 3974 1690 3834 
z
M 1421 730 
L 1504 659 
Q 1235 243 1049 86 
Q 864 -70 627 -70 
Q 314 -70 314 282 
Q 314 467 454 992 
L 762 2125 
Q 819 2330 819 2406 
Q 819 2502 745 2528 
Q 672 2554 410 2560 
L 410 2662 
Q 704 2688 1434 2822 
L 1459 2803 
L 858 608 
Q 794 390 794 326 
Q 794 230 883 230 
Q 1043 230 1421 730 
z
" transform="scale(0.015625)"/>
       <path id="STIXGeneral-Regular-3d" d="M 4077 2048 
L 307 2048 
L 307 2470 
L 4077 2470 
L 4077 2048 
z
M 4077 768 
L 307 768 
L 307 1190 
L 4077 1190 
L 4077 768 
z
" transform="scale(0.015625)"/>
       <path id="STIXGeneral-Regular-31" d="M 2522 0 
L 755 0 
L 755 96 
Q 1107 115 1235 227 
Q 1363 339 1363 608 
L 1363 3482 
Q 1363 3795 1171 3795 
Q 1082 3795 883 3718 
L 710 3654 
L 710 3744 
L 1856 4326 
L 1914 4307 
L 1914 486 
Q 1914 275 2042 185 
Q 2170 96 2522 96 
L 2522 0 
z
" transform="scale(0.015625)"/>
       <path id="STIXGeneral-Regular-2212" d="M 3974 1408 
L 410 1408 
L 410 1830 
L 3974 1830 
L 3974 1408 
z
" transform="scale(0.015625)"/>
       <path id="STIXGeneral-Italic-3c1" d="M -58 -864 
L 422 966 
Q 640 1811 1081 2316 
Q 1523 2822 2042 2822 
Q 2189 2822 2278 2816 
Q 2368 2810 2525 2765 
Q 2682 2720 2774 2633 
Q 2867 2547 2940 2371 
Q 3014 2195 3014 1946 
Q 3014 1210 2403 570 
Q 1792 -70 1107 -70 
Q 864 -70 672 38 
L 442 -864 
Q 378 -1126 243 -1312 
L -256 -1312 
Q -128 -1114 -58 -864 
z
M 2445 1997 
Q 2445 2291 2333 2489 
Q 2221 2688 2022 2688 
Q 1747 2688 1472 2361 
Q 1197 2035 1056 1530 
Q 762 467 762 288 
Q 762 186 851 118 
Q 941 51 1075 51 
Q 1472 58 1798 390 
Q 2125 723 2285 1161 
Q 2445 1600 2445 1997 
z
" transform="scale(0.015625)"/>
       <path id="STIXGeneral-Regular-6e" d="M 3104 0 
L 1773 0 
L 1779 96 
Q 2016 115 2096 233 
Q 2176 352 2176 672 
L 2176 1946 
Q 2176 2592 1709 2592 
Q 1549 2592 1408 2515 
Q 1267 2438 1050 2227 
L 1050 461 
Q 1050 269 1136 192 
Q 1222 115 1466 96 
L 1466 0 
L 115 0 
L 115 96 
Q 358 115 435 214 
Q 512 314 512 602 
L 512 2157 
Q 512 2394 467 2483 
Q 422 2573 288 2573 
Q 160 2573 102 2547 
L 102 2656 
Q 550 2784 979 2944 
L 1030 2925 
L 1030 2426 
L 1037 2426 
Q 1491 2944 1958 2944 
Q 2323 2944 2518 2688 
Q 2714 2432 2714 1958 
L 2714 544 
Q 2714 288 2790 205 
Q 2867 122 3104 96 
L 3104 0 
z
" transform="scale(0.015625)"/>
       <path id="STIXGeneral-Regular-65" d="M 2611 1050 
L 2714 1005 
Q 2330 -64 1376 -64 
Q 813 -64 486 329 
Q 160 723 160 1389 
Q 160 2074 525 2509 
Q 890 2944 1485 2944 
Q 2061 2944 2374 2502 
Q 2560 2246 2592 1773 
L 621 1773 
Q 646 1370 700 1158 
Q 755 947 915 730 
Q 1184 378 1626 378 
Q 1939 378 2153 531 
Q 2368 685 2611 1050 
z
M 634 1978 
L 1939 1978 
Q 1882 2381 1750 2547 
Q 1619 2714 1312 2714 
Q 1043 2714 864 2525 
Q 685 2336 634 1978 
z
" transform="scale(0.015625)"/>
       <path id="STIXGeneral-Regular-69" d="M 1152 4045 
Q 1152 3904 1056 3811 
Q 960 3718 819 3718 
Q 685 3718 592 3811 
Q 499 3904 499 4045 
Q 499 4179 595 4275 
Q 691 4371 826 4371 
Q 966 4371 1059 4275 
Q 1152 4179 1152 4045 
z
M 1619 0 
L 102 0 
L 102 96 
Q 435 115 521 211 
Q 608 307 608 666 
L 608 2118 
Q 608 2342 563 2432 
Q 518 2522 397 2522 
Q 243 2522 128 2490 
L 128 2592 
L 1120 2944 
L 1146 2918 
L 1146 672 
Q 1146 314 1226 218 
Q 1306 122 1619 96 
L 1619 0 
z
" transform="scale(0.015625)"/>
       <path id="STIXGeneral-Regular-67" d="M 3008 2483 
L 2477 2483 
Q 2598 2208 2598 1946 
Q 2598 1453 2265 1203 
Q 1933 954 1600 954 
Q 1530 954 1357 973 
L 1235 986 
Q 1107 947 979 812 
Q 851 678 851 582 
Q 851 435 1350 410 
L 2176 371 
Q 2528 358 2739 172 
Q 2950 -13 2950 -314 
Q 2950 -685 2566 -986 
Q 2035 -1395 1286 -1395 
Q 826 -1395 502 -1212 
Q 179 -1030 179 -774 
Q 179 -595 320 -419 
Q 461 -243 806 6 
Q 602 102 534 172 
Q 467 243 467 346 
Q 467 531 762 787 
Q 909 915 1037 1043 
Q 717 1203 579 1401 
Q 442 1600 442 1901 
Q 442 2336 752 2640 
Q 1062 2944 1510 2944 
Q 1766 2944 2022 2848 
L 2163 2797 
Q 2349 2733 2515 2733 
L 3008 2733 
L 3008 2483 
z
M 973 2163 
L 973 2144 
Q 973 1683 1155 1398 
Q 1338 1114 1632 1114 
Q 1850 1114 1978 1270 
Q 2106 1427 2106 1690 
Q 2106 2112 1914 2464 
Q 1754 2765 1446 2765 
Q 1222 2765 1097 2605 
Q 973 2445 973 2163 
z
M 2771 -410 
Q 2771 -230 2595 -163 
Q 2419 -96 1978 -96 
Q 1344 -96 941 -13 
Q 749 -243 688 -348 
Q 627 -454 627 -563 
Q 627 -774 880 -902 
Q 1133 -1030 1555 -1030 
Q 2099 -1030 2435 -860 
Q 2771 -691 2771 -410 
z
" transform="scale(0.015625)"/>
       <path id="STIXGeneral-Regular-68" d="M 3117 0 
L 1760 0 
L 1760 96 
Q 2042 128 2118 224 
Q 2195 320 2195 653 
L 2195 1920 
Q 2195 2598 1722 2598 
Q 1530 2598 1370 2508 
Q 1210 2419 1005 2195 
L 1005 653 
Q 1005 320 1081 224 
Q 1158 128 1440 96 
L 1440 0 
L 58 0 
L 58 96 
Q 333 134 400 224 
Q 467 314 467 653 
L 467 3667 
Q 467 3872 406 3933 
Q 346 3994 141 3994 
Q 83 3994 64 3987 
L 64 4090 
L 237 4141 
Q 730 4288 973 4371 
L 1005 4352 
L 1005 2406 
Q 1229 2694 1446 2819 
Q 1664 2944 1946 2944 
Q 2733 2944 2733 1926 
L 2733 653 
Q 2733 320 2793 233 
Q 2854 147 3117 96 
L 3117 0 
z
" transform="scale(0.015625)"/>
      </defs>
      <use xlink:href="#TimesNewRomanPSMT-4c" transform="translate(0 0.5625)"/>
      <use xlink:href="#TimesNewRomanPSMT-6f" transform="translate(61.083984 0.5625)"/>
      <use xlink:href="#TimesNewRomanPSMT-63" transform="translate(111.083984 0.5625)"/>
      <use xlink:href="#TimesNewRomanPSMT-61" transform="translate(155.46875 0.5625)"/>
      <use xlink:href="#TimesNewRomanPSMT-6c" transform="translate(199.853516 0.5625)"/>
      <use xlink:href="#TimesNewRomanPSMT-20" transform="translate(227.636719 0.5625)"/>
      <use xlink:href="#TimesNewRomanPSMT-68" transform="translate(252.636719 0.5625)"/>
      <use xlink:href="#TimesNewRomanPSMT-65" transform="translate(302.636719 0.5625)"/>
      <use xlink:href="#TimesNewRomanPSMT-74" transform="translate(347.021484 0.5625)"/>
      <use xlink:href="#TimesNewRomanPSMT-65" transform="translate(374.804688 0.5625)"/>
      <use xlink:href="#TimesNewRomanPSMT-72" transform="translate(419.189453 0.5625)"/>
      <use xlink:href="#TimesNewRomanPSMT-6f" transform="translate(452.490234 0.5625)"/>
      <use xlink:href="#TimesNewRomanPSMT-70" transform="translate(502.490234 0.5625)"/>
      <use xlink:href="#TimesNewRomanPSMT-68" transform="translate(552.490234 0.5625)"/>
      <use xlink:href="#TimesNewRomanPSMT-69" transform="translate(602.490234 0.5625)"/>
      <use xlink:href="#TimesNewRomanPSMT-6c" transform="translate(630.273438 0.5625)"/>
      <use xlink:href="#TimesNewRomanPSMT-79" transform="translate(658.056641 0.5625)"/>
      <use xlink:href="#TimesNewRomanPSMT-20" transform="translate(708.056641 0.5625)"/>
      <use xlink:href="#STIXGeneral-Italic-68" transform="translate(733.056641 0.5625)"/>
      <use xlink:href="#STIXGeneral-Italic-69" transform="translate(783.056625 -12.665625) scale(0.7)"/>
      <use xlink:href="#STIXGeneral-Regular-3d" transform="translate(821.365988 0.5625)"/>
      <use xlink:href="#STIXGeneral-Regular-31" transform="translate(904.305969 0.5625)"/>
      <use xlink:href="#STIXGeneral-Regular-2212" transform="translate(968.74595 0.5625)"/>
      <use xlink:href="#STIXGeneral-Italic-3c1" transform="translate(1051.685931 1.0625)"/>
      <use xlink:href="#STIXGeneral-Regular-6e" transform="translate(1103.629207 -12.665625) scale(0.7)"/>
      <use xlink:href="#STIXGeneral-Regular-65" transform="translate(1138.629196 -12.665625) scale(0.7)"/>
      <use xlink:href="#STIXGeneral-Regular-69" transform="translate(1169.709192 -12.665625) scale(0.7)"/>
      <use xlink:href="#STIXGeneral-Regular-67" transform="translate(1189.169183 -12.665625) scale(0.7)"/>
      <use xlink:href="#STIXGeneral-Regular-68" transform="translate(1224.169172 -12.665625) scale(0.7)"/>
      <path d="M 1051.685931 56.90625 
L 1051.685931 63.15625 
L 1102.085925 63.15625 
L 1102.085925 56.90625 
L 1051.685931 56.90625 
z
"/>
     </g>
    </g>
   </g>
   <g id="matplotlib.axis_2">
    <g id="ytick_1">
     <g id="line2d_7">
      <defs>
       <path id="m5a2593b47c" d="M 0 0 
L 3.5 0 
" style="stroke: #000000; stroke-width: 0.8"/>
      </defs>
      <g>
       <use xlink:href="#m5a2593b47c" x="51.702969" y="252.764161" style="stroke: #000000; stroke-width: 0.8"/>
      </g>
     </g>
     <g id="text_7">
      <!-- −2.00 -->
      <g transform="translate(22.75 256.583223) scale(0.11 -0.11)">
       <defs>
        <path id="TimesNewRomanPSMT-2212" d="M 3484 2000 
L 116 2000 
L 116 2256 
L 3484 2256 
L 3484 2000 
z
" transform="scale(0.015625)"/>
       </defs>
       <use xlink:href="#TimesNewRomanPSMT-2212"/>
       <use xlink:href="#TimesNewRomanPSMT-32" transform="translate(56.396484 0)"/>
       <use xlink:href="#TimesNewRomanPSMT-2e" transform="translate(106.396484 0)"/>
       <use xlink:href="#TimesNewRomanPSMT-30" transform="translate(131.396484 0)"/>
       <use xlink:href="#TimesNewRomanPSMT-30" transform="translate(181.396484 0)"/>
      </g>
     </g>
    </g>
    <g id="ytick_2">
     <g id="line2d_8">
      <g>
       <use xlink:href="#m5a2593b47c" x="51.702969" y="225.121579" style="stroke: #000000; stroke-width: 0.8"/>
      </g>
     </g>
     <g id="text_8">
      <!-- −1.75 -->
      <g transform="translate(22.75 228.940642) scale(0.11 -0.11)">
       <defs>
        <path id="TimesNewRomanPSMT-37" d="M 644 4238 
L 2916 4238 
L 2916 4119 
L 1503 -88 
L 1153 -88 
L 2419 3728 
L 1253 3728 
Q 900 3728 750 3644 
Q 488 3500 328 3200 
L 238 3234 
L 644 4238 
z
" transform="scale(0.015625)"/>
       </defs>
       <use xlink:href="#TimesNewRomanPSMT-2212"/>
       <use xlink:href="#TimesNewRomanPSMT-31" transform="translate(56.396484 0)"/>
       <use xlink:href="#TimesNewRomanPSMT-2e" transform="translate(106.396484 0)"/>
       <use xlink:href="#TimesNewRomanPSMT-37" transform="translate(131.396484 0)"/>
       <use xlink:href="#TimesNewRomanPSMT-35" transform="translate(181.396484 0)"/>
      </g>
     </g>
    </g>
    <g id="ytick_3">
     <g id="line2d_9">
      <g>
       <use xlink:href="#m5a2593b47c" x="51.702969" y="197.478998" style="stroke: #000000; stroke-width: 0.8"/>
      </g>
     </g>
     <g id="text_9">
      <!-- −1.50 -->
      <g transform="translate(22.75 201.29806) scale(0.11 -0.11)">
       <use xlink:href="#TimesNewRomanPSMT-2212"/>
       <use xlink:href="#TimesNewRomanPSMT-31" transform="translate(56.396484 0)"/>
       <use xlink:href="#TimesNewRomanPSMT-2e" transform="translate(106.396484 0)"/>
       <use xlink:href="#TimesNewRomanPSMT-35" transform="translate(131.396484 0)"/>
       <use xlink:href="#TimesNewRomanPSMT-30" transform="translate(181.396484 0)"/>
      </g>
     </g>
    </g>
    <g id="ytick_4">
     <g id="line2d_10">
      <g>
       <use xlink:href="#m5a2593b47c" x="51.702969" y="169.836417" style="stroke: #000000; stroke-width: 0.8"/>
      </g>
     </g>
     <g id="text_10">
      <!-- −1.25 -->
      <g transform="translate(22.75 173.655479) scale(0.11 -0.11)">
       <use xlink:href="#TimesNewRomanPSMT-2212"/>
       <use xlink:href="#TimesNewRomanPSMT-31" transform="translate(56.396484 0)"/>
       <use xlink:href="#TimesNewRomanPSMT-2e" transform="translate(106.396484 0)"/>
       <use xlink:href="#TimesNewRomanPSMT-32" transform="translate(131.396484 0)"/>
       <use xlink:href="#TimesNewRomanPSMT-35" transform="translate(181.396484 0)"/>
      </g>
     </g>
    </g>
    <g id="ytick_5">
     <g id="line2d_11">
      <g>
       <use xlink:href="#m5a2593b47c" x="51.702969" y="142.193835" style="stroke: #000000; stroke-width: 0.8"/>
      </g>
     </g>
     <g id="text_11">
      <!-- −1.00 -->
      <g transform="translate(22.75 146.012898) scale(0.11 -0.11)">
       <use xlink:href="#TimesNewRomanPSMT-2212"/>
       <use xlink:href="#TimesNewRomanPSMT-31" transform="translate(56.396484 0)"/>
       <use xlink:href="#TimesNewRomanPSMT-2e" transform="translate(106.396484 0)"/>
       <use xlink:href="#TimesNewRomanPSMT-30" transform="translate(131.396484 0)"/>
       <use xlink:href="#TimesNewRomanPSMT-30" transform="translate(181.396484 0)"/>
      </g>
     </g>
    </g>
    <g id="ytick_6">
     <g id="line2d_12">
      <g>
       <use xlink:href="#m5a2593b47c" x="51.702969" y="114.551254" style="stroke: #000000; stroke-width: 0.8"/>
      </g>
     </g>
     <g id="text_12">
      <!-- −0.75 -->
      <g transform="translate(22.75 118.370316) scale(0.11 -0.11)">
       <use xlink:href="#TimesNewRomanPSMT-2212"/>
       <use xlink:href="#TimesNewRomanPSMT-30" transform="translate(56.396484 0)"/>
       <use xlink:href="#TimesNewRomanPSMT-2e" transform="translate(106.396484 0)"/>
       <use xlink:href="#TimesNewRomanPSMT-37" transform="translate(131.396484 0)"/>
       <use xlink:href="#TimesNewRomanPSMT-35" transform="translate(181.396484 0)"/>
      </g>
     </g>
    </g>
    <g id="ytick_7">
     <g id="line2d_13">
      <g>
       <use xlink:href="#m5a2593b47c" x="51.702969" y="86.908673" style="stroke: #000000; stroke-width: 0.8"/>
      </g>
     </g>
     <g id="text_13">
      <!-- −0.50 -->
      <g transform="translate(22.75 90.727735) scale(0.11 -0.11)">
       <use xlink:href="#TimesNewRomanPSMT-2212"/>
       <use xlink:href="#TimesNewRomanPSMT-30" transform="translate(56.396484 0)"/>
       <use xlink:href="#TimesNewRomanPSMT-2e" transform="translate(106.396484 0)"/>
       <use xlink:href="#TimesNewRomanPSMT-35" transform="translate(131.396484 0)"/>
       <use xlink:href="#TimesNewRomanPSMT-30" transform="translate(181.396484 0)"/>
      </g>
     </g>
    </g>
    <g id="ytick_8">
     <g id="line2d_14">
      <g>
       <use xlink:href="#m5a2593b47c" x="51.702969" y="59.266091" style="stroke: #000000; stroke-width: 0.8"/>
      </g>
     </g>
     <g id="text_14">
      <!-- −0.25 -->
      <g transform="translate(22.75 63.085154) scale(0.11 -0.11)">
       <use xlink:href="#TimesNewRomanPSMT-2212"/>
       <use xlink:href="#TimesNewRomanPSMT-30" transform="translate(56.396484 0)"/>
       <use xlink:href="#TimesNewRomanPSMT-2e" transform="translate(106.396484 0)"/>
       <use xlink:href="#TimesNewRomanPSMT-32" transform="translate(131.396484 0)"/>
       <use xlink:href="#TimesNewRomanPSMT-35" transform="translate(181.396484 0)"/>
      </g>
     </g>
    </g>
    <g id="ytick_9">
     <g id="line2d_15">
      <g>
       <use xlink:href="#m5a2593b47c" x="51.702969" y="31.62351" style="stroke: #000000; stroke-width: 0.8"/>
      </g>
     </g>
     <g id="text_15">
      <!-- 0.00 -->
      <g transform="translate(28.952969 35.442572) scale(0.11 -0.11)">
       <use xlink:href="#TimesNewRomanPSMT-30"/>
       <use xlink:href="#TimesNewRomanPSMT-2e" transform="translate(50 0)"/>
       <use xlink:href="#TimesNewRomanPSMT-30" transform="translate(75 0)"/>
       <use xlink:href="#TimesNewRomanPSMT-30" transform="translate(125 0)"/>
      </g>
     </g>
    </g>
    <g id="text_16">
     <!-- $\Delta R^2$ (GCN $-$ Linear) -->
     <g transform="translate(16.33 184.838125) rotate(-90) scale(0.11 -0.11)">
      <defs>
       <path id="STIXGeneral-Regular-394" d="M 4320 0 
L 307 0 
L 2221 4314 
L 2349 4314 
L 4320 0 
z
M 3354 589 
L 2118 3405 
L 870 589 
L 3354 589 
z
" transform="scale(0.015625)"/>
       <path id="STIXGeneral-Italic-52" d="M 845 4179 
L 2458 4179 
Q 3078 4179 3420 3936 
Q 3763 3693 3763 3277 
Q 3763 2778 3341 2458 
Q 3091 2266 2502 2131 
L 3072 627 
Q 3181 333 3299 217 
Q 3418 102 3629 102 
L 3629 0 
L 2688 0 
L 1901 2074 
L 1478 2106 
L 1126 806 
Q 1043 512 1043 403 
Q 1043 256 1126 192 
Q 1210 128 1472 102 
L 1472 0 
L -83 0 
L -83 102 
Q 173 134 278 243 
Q 384 352 461 646 
L 1222 3405 
Q 1299 3699 1299 3808 
Q 1299 3923 1210 3987 
Q 1133 4038 845 4077 
L 845 4179 
z
M 1958 3795 
L 1555 2342 
Q 1754 2310 1882 2310 
Q 2451 2310 2771 2566 
Q 3091 2822 3091 3270 
Q 3091 3603 2892 3795 
Q 2694 3987 2323 3987 
Q 2010 3987 1958 3795 
z
" transform="scale(0.015625)"/>
       <path id="STIXGeneral-Regular-32" d="M 3034 877 
L 2688 0 
L 186 0 
L 186 77 
L 1325 1286 
Q 1773 1754 1965 2144 
Q 2157 2534 2157 2950 
Q 2157 3379 1920 3616 
Q 1683 3853 1267 3853 
Q 922 3853 720 3673 
Q 518 3494 326 3021 
L 192 3053 
Q 301 3648 630 3987 
Q 960 4326 1523 4326 
Q 2054 4326 2380 4006 
Q 2707 3686 2707 3200 
Q 2707 2477 1888 1613 
L 832 486 
L 2330 486 
Q 2541 486 2665 569 
Q 2790 653 2944 915 
L 3034 877 
z
" transform="scale(0.015625)"/>
       <path id="TimesNewRomanPSMT-28" d="M 1988 -1253 
L 1988 -1369 
Q 1516 -1131 1200 -813 
Q 750 -359 506 256 
Q 263 872 263 1534 
Q 263 2503 741 3301 
Q 1219 4100 1988 4444 
L 1988 4313 
Q 1603 4100 1356 3731 
Q 1109 3363 987 2797 
Q 866 2231 866 1616 
Q 866 947 969 400 
Q 1050 -31 1165 -292 
Q 1281 -553 1476 -793 
Q 1672 -1034 1988 -1253 
z
" transform="scale(0.015625)"/>
       <path id="TimesNewRomanPSMT-47" d="M 3928 4334 
L 4038 2997 
L 3928 2997 
Q 3763 3497 3500 3750 
Q 3122 4116 2528 4116 
Q 1719 4116 1297 3475 
Q 944 2934 944 2188 
Q 944 1581 1178 1081 
Q 1413 581 1792 348 
Q 2172 116 2572 116 
Q 2806 116 3025 175 
Q 3244 234 3447 350 
L 3447 1575 
Q 3447 1894 3398 1992 
Q 3350 2091 3248 2142 
Q 3147 2194 2891 2194 
L 2891 2313 
L 4531 2313 
L 4531 2194 
L 4453 2194 
Q 4209 2194 4119 2031 
Q 4056 1916 4056 1575 
L 4056 278 
Q 3697 84 3347 -6 
Q 2997 -97 2569 -97 
Q 1341 -97 703 691 
Q 225 1281 225 2053 
Q 225 2613 494 3125 
Q 813 3734 1369 4063 
Q 1834 4334 2469 4334 
Q 2700 4334 2889 4296 
Q 3078 4259 3425 4131 
Q 3600 4066 3659 4066 
Q 3719 4066 3761 4120 
Q 3803 4175 3813 4334 
L 3928 4334 
z
" transform="scale(0.015625)"/>
       <path id="TimesNewRomanPSMT-43" d="M 3853 4334 
L 3950 2894 
L 3853 2894 
Q 3659 3541 3300 3825 
Q 2941 4109 2438 4109 
Q 2016 4109 1675 3895 
Q 1334 3681 1139 3212 
Q 944 2744 944 2047 
Q 944 1472 1128 1050 
Q 1313 628 1683 403 
Q 2053 178 2528 178 
Q 2941 178 3256 354 
Q 3572 531 3950 1056 
L 4047 994 
Q 3728 428 3303 165 
Q 2878 -97 2294 -97 
Q 1241 -97 663 684 
Q 231 1266 231 2053 
Q 231 2688 515 3219 
Q 800 3750 1298 4042 
Q 1797 4334 2388 4334 
Q 2847 4334 3294 4109 
Q 3425 4041 3481 4041 
Q 3566 4041 3628 4100 
Q 3709 4184 3744 4334 
L 3853 4334 
z
" transform="scale(0.015625)"/>
       <path id="TimesNewRomanPSMT-4e" d="M -84 4238 
L 1066 4238 
L 3656 1059 
L 3656 3503 
Q 3656 3894 3569 3991 
Q 3453 4122 3203 4122 
L 3056 4122 
L 3056 4238 
L 4531 4238 
L 4531 4122 
L 4381 4122 
Q 4113 4122 4000 3959 
Q 3931 3859 3931 3503 
L 3931 -69 
L 3819 -69 
L 1025 3344 
L 1025 734 
Q 1025 344 1109 247 
Q 1228 116 1475 116 
L 1625 116 
L 1625 0 
L 150 0 
L 150 116 
L 297 116 
Q 569 116 681 278 
Q 750 378 750 734 
L 750 3681 
Q 566 3897 470 3965 
Q 375 4034 191 4094 
Q 100 4122 -84 4122 
L -84 4238 
z
" transform="scale(0.015625)"/>
       <path id="TimesNewRomanPSMT-6e" d="M 1034 2341 
Q 1538 2947 1994 2947 
Q 2228 2947 2397 2830 
Q 2566 2713 2666 2444 
Q 2734 2256 2734 1869 
L 2734 647 
Q 2734 375 2778 278 
Q 2813 200 2889 156 
Q 2966 113 3172 113 
L 3172 0 
L 1756 0 
L 1756 113 
L 1816 113 
Q 2016 113 2095 173 
Q 2175 234 2206 353 
Q 2219 400 2219 647 
L 2219 1819 
Q 2219 2209 2117 2386 
Q 2016 2563 1775 2563 
Q 1403 2563 1034 2156 
L 1034 647 
Q 1034 356 1069 288 
Q 1113 197 1189 155 
Q 1266 113 1500 113 
L 1500 0 
L 84 0 
L 84 113 
L 147 113 
Q 366 113 442 223 
Q 519 334 519 647 
L 519 1709 
Q 519 2225 495 2337 
Q 472 2450 423 2490 
Q 375 2531 294 2531 
Q 206 2531 84 2484 
L 38 2597 
L 900 2947 
L 1034 2947 
L 1034 2341 
z
" transform="scale(0.015625)"/>
       <path id="TimesNewRomanPSMT-29" d="M 144 4313 
L 144 4444 
Q 619 4209 934 3891 
Q 1381 3434 1625 2820 
Q 1869 2206 1869 1541 
Q 1869 572 1392 -226 
Q 916 -1025 144 -1369 
L 144 -1253 
Q 528 -1038 776 -670 
Q 1025 -303 1145 264 
Q 1266 831 1266 1447 
Q 1266 2113 1163 2663 
Q 1084 3094 967 3353 
Q 850 3613 656 3853 
Q 463 4094 144 4313 
z
" transform="scale(0.015625)"/>
      </defs>
      <use xlink:href="#STIXGeneral-Regular-394" transform="translate(0 0.409375)"/>
      <use xlink:href="#STIXGeneral-Italic-52" transform="translate(72.199982 0.409375)"/>
      <use xlink:href="#STIXGeneral-Regular-32" transform="translate(143.925754 35.684375) scale(0.7)"/>
      <use xlink:href="#TimesNewRomanPSMT-20" transform="translate(183.335118 0.409375)"/>
      <use xlink:href="#TimesNewRomanPSMT-28" transform="translate(208.335118 0.409375)"/>
      <use xlink:href="#TimesNewRomanPSMT-47" transform="translate(241.635899 0.409375)"/>
      <use xlink:href="#TimesNewRomanPSMT-43" transform="translate(313.852696 0.409375)"/>
      <use xlink:href="#TimesNewRomanPSMT-4e" transform="translate(380.551915 0.409375)"/>
      <use xlink:href="#TimesNewRomanPSMT-20" transform="translate(452.768712 0.409375)"/>
      <use xlink:href="#STIXGeneral-Regular-2212" transform="translate(477.768712 0.409375)"/>
      <use xlink:href="#TimesNewRomanPSMT-20" transform="translate(546.268697 0.409375)"/>
      <use xlink:href="#TimesNewRomanPSMT-4c" transform="translate(571.268697 0.409375)"/>
      <use xlink:href="#TimesNewRomanPSMT-69" transform="translate(632.352681 0.409375)"/>
      <use xlink:href="#TimesNewRomanPSMT-6e" transform="translate(660.135884 0.409375)"/>
      <use xlink:href="#TimesNewRomanPSMT-65" transform="translate(710.135884 0.409375)"/>
      <use xlink:href="#TimesNewRomanPSMT-61" transform="translate(754.52065 0.409375)"/>
      <use xlink:href="#TimesNewRomanPSMT-72" transform="translate(798.905415 0.409375)"/>
      <use xlink:href="#TimesNewRomanPSMT-29" transform="translate(832.206197 0.409375)"/>
     </g>
    </g>
   </g>
   <g id="line2d_16">
    <path d="M 64.439469 34.80527 
L 67.012499 35.46338 
L 69.585529 36.121491 
L 72.15856 36.779601 
L 74.73159 37.437712 
L 77.30462 38.095822 
L 79.877651 38.753933 
L 82.450681 39.412043 
L 85.023711 40.070154 
L 87.596741 40.728265 
L 90.169772 41.386375 
L 92.742802 42.044486 
L 95.315832 42.702596 
L 97.888863 43.360707 
L 100.461893 44.018817 
L 103.034923 44.676928 
L 105.607954 45.335038 
L 108.180984 45.993149 
L 110.754014 46.651259 
L 113.327045 47.30937 
L 115.900075 47.967481 
L 118.473105 48.625591 
L 121.046135 49.283702 
L 123.619166 49.941812 
L 126.192196 50.599923 
L 128.765226 51.258033 
L 131.338257 51.916144 
L 133.911287 52.574254 
L 136.484317 53.232365 
L 139.057348 53.890476 
L 141.630378 54.548586 
L 144.203408 55.206697 
L 146.776438 55.864807 
L 149.349469 56.522918 
L 151.922499 57.181028 
L 154.495529 57.839139 
L 157.06856 58.497249 
L 159.64159 59.15536 
L 162.21462 59.81347 
L 164.787651 60.471581 
L 167.360681 61.129692 
L 169.933711 61.787802 
L 172.506741 62.445913 
L 175.079772 63.104023 
L 177.652802 63.762134 
L 180.225832 64.420244 
L 182.798863 65.078355 
L 185.371893 65.736465 
L 187.944923 66.394576 
L 190.517954 67.052686 
L 193.090984 67.710797 
L 195.664014 68.368908 
L 198.237045 69.027018 
L 200.810075 69.685129 
L 203.383105 70.343239 
L 205.956135 71.00135 
L 208.529166 71.65946 
L 211.102196 72.317571 
L 213.675226 72.975681 
L 216.248257 73.633792 
L 218.821287 74.291902 
L 221.394317 74.950013 
L 223.967348 75.608124 
L 226.540378 76.266234 
L 229.113408 76.924345 
L 231.686438 77.582455 
L 234.259469 78.240566 
L 236.832499 78.898676 
L 239.405529 79.556787 
L 241.97856 80.214897 
L 244.55159 80.873008 
L 247.12462 81.531119 
L 249.697651 82.189229 
L 252.270681 82.84734 
L 254.843711 83.50545 
L 257.416741 84.163561 
L 259.989772 84.821671 
L 262.562802 85.479782 
L 265.135832 86.137892 
L 267.708863 86.796003 
L 270.281893 87.454113 
L 272.854923 88.112224 
L 275.427954 88.770335 
L 278.000984 89.428445 
L 280.574014 90.086556 
L 283.147045 90.744666 
L 285.720075 91.402777 
L 288.293105 92.060887 
L 290.866135 92.718998 
L 293.439166 93.377108 
L 296.012196 94.035219 
L 298.585226 94.693329 
L 301.158257 95.35144 
L 303.731287 96.009551 
L 306.304317 96.667661 
L 308.877348 97.325772 
L 311.450378 97.983882 
L 314.023408 98.641993 
L 316.596438 99.300103 
L 319.169469 99.958214 
" clip-path="url(#p2d8810d0b7)" style="fill: none; stroke-dasharray: 4.44,1.92; stroke-dashoffset: 0; stroke: #595959; stroke-width: 1.2"/>
   </g>
   <g id="patch_3">
    <path d="M 51.702969 253.578125 
L 51.702969 20.838125 
" style="fill: none; stroke: #000000; stroke-width: 0.8; stroke-linejoin: miter; stroke-linecap: square"/>
   </g>
   <g id="patch_4">
    <path d="M 331.905969 253.578125 
L 331.905969 20.838125 
" style="fill: none; stroke: #000000; stroke-width: 0.8; stroke-linejoin: miter; stroke-linecap: square"/>
   </g>
   <g id="patch_5">
    <path d="M 51.702969 253.578125 
L 331.905969 253.578125 
" style="fill: none; stroke: #000000; stroke-width: 0.8; stroke-linejoin: miter; stroke-linecap: square"/>
   </g>
   <g id="patch_6">
    <path d="M 51.702969 20.838125 
L 331.905969 20.838125 
" style="fill: none; stroke: #000000; stroke-width: 0.8; stroke-linejoin: miter; stroke-linecap: square"/>
   </g>
   <g id="PathCollection_1">
    <defs>
     <path id="m9e0112af2d" d="M 0 2.915476 
C 0.773193 2.915476 1.514823 2.608283 2.061553 2.061553 
C 2.608283 1.514823 2.915476 0.773193 2.915476 0 
C 2.915476 -0.773193 2.608283 -1.514823 2.061553 -2.061553 
C 1.514823 -2.608283 0.773193 -2.915476 0 -2.915476 
C -0.773193 -2.915476 -1.514823 -2.608283 -2.061553 -2.061553 
C -2.608283 -1.514823 -2.915476 -0.773193 -2.915476 0 
C -2.915476 0.773193 -2.608283 1.514823 -2.061553 2.061553 
C -1.514823 2.608283 -0.773193 2.915476 0 2.915476 
z
" style="stroke: #ffffff; stroke-opacity: 0.85; stroke-width: 0.5"/>
    </defs>
    <g clip-path="url(#p2d8810d0b7)">
     <use xlink:href="#m9e0112af2d" x="72.966569" y="32.895462" style="fill: #4c72b0; fill-opacity: 0.85; stroke: #ffffff; stroke-opacity: 0.85; stroke-width: 0.5"/>
     <use xlink:href="#m9e0112af2d" x="112.656903" y="33.437477" style="fill: #4c72b0; fill-opacity: 0.85; stroke: #ffffff; stroke-opacity: 0.85; stroke-width: 0.5"/>
     <use xlink:href="#m9e0112af2d" x="109.340051" y="39.171308" style="fill: #4c72b0; fill-opacity: 0.85; stroke: #ffffff; stroke-opacity: 0.85; stroke-width: 0.5"/>
     <use xlink:href="#m9e0112af2d" x="65.37605" y="33.025161" style="fill: #4c72b0; fill-opacity: 0.85; stroke: #ffffff; stroke-opacity: 0.85; stroke-width: 0.5"/>
     <use xlink:href="#m9e0112af2d" x="64.439469" y="33.922838" style="fill: #4c72b0; fill-opacity: 0.85; stroke: #ffffff; stroke-opacity: 0.85; stroke-width: 0.5"/>
     <use xlink:href="#m9e0112af2d" x="86.018153" y="35.888273" style="fill: #4c72b0; fill-opacity: 0.85; stroke: #ffffff; stroke-opacity: 0.85; stroke-width: 0.5"/>
     <use xlink:href="#m9e0112af2d" x="109.816786" y="31.876428" style="fill: #4c72b0; fill-opacity: 0.85; stroke: #ffffff; stroke-opacity: 0.85; stroke-width: 0.5"/>
     <use xlink:href="#m9e0112af2d" x="70.417604" y="32.835098" style="fill: #4c72b0; fill-opacity: 0.85; stroke: #ffffff; stroke-opacity: 0.85; stroke-width: 0.5"/>
     <use xlink:href="#m9e0112af2d" x="97.1112" y="31.417216" style="fill: #4c72b0; fill-opacity: 0.85; stroke: #ffffff; stroke-opacity: 0.85; stroke-width: 0.5"/>
     <use xlink:href="#m9e0112af2d" x="66.318903" y="32.89447" style="fill: #4c72b0; fill-opacity: 0.85; stroke: #ffffff; stroke-opacity: 0.85; stroke-width: 0.5"/>
     <use xlink:href="#m9e0112af2d" x="74.580941" y="33.210097" style="fill: #4c72b0; fill-opacity: 0.85; stroke: #ffffff; stroke-opacity: 0.85; stroke-width: 0.5"/>
     <use xlink:href="#m9e0112af2d" x="73.032143" y="32.967686" style="fill: #4c72b0; fill-opacity: 0.85; stroke: #ffffff; stroke-opacity: 0.85; stroke-width: 0.5"/>
    </g>
   </g>
   <g id="PathCollection_2">
    <defs>
     <path id="m43ec2309e3" d="M 0 2.915476 
C 0.773193 2.915476 1.514823 2.608283 2.061553 2.061553 
C 2.608283 1.514823 2.915476 0.773193 2.915476 0 
C 2.915476 -0.773193 2.608283 -1.514823 2.061553 -2.061553 
C 1.514823 -2.608283 0.773193 -2.915476 0 -2.915476 
C -0.773193 -2.915476 -1.514823 -2.608283 -2.061553 -2.061553 
C -2.608283 -1.514823 -2.915476 -0.773193 -2.915476 0 
C -2.915476 0.773193 -2.608283 1.514823 -2.061553 2.061553 
C -1.514823 2.608283 -0.773193 2.915476 0 2.915476 
z
" style="stroke: #ffffff; stroke-opacity: 0.85; stroke-width: 0.5"/>
    </defs>
    <g clip-path="url(#p2d8810d0b7)">
     <use xlink:href="#m43ec2309e3" x="253.338073" y="181.843647" style="fill: #c44e52; fill-opacity: 0.85; stroke: #ffffff; stroke-opacity: 0.85; stroke-width: 0.5"/>
     <use xlink:href="#m43ec2309e3" x="290.030412" y="63.850877" style="fill: #c44e52; fill-opacity: 0.85; stroke: #ffffff; stroke-opacity: 0.85; stroke-width: 0.5"/>
     <use xlink:href="#m43ec2309e3" x="249.656464" y="242.999034" style="fill: #c44e52; fill-opacity: 0.85; stroke: #ffffff; stroke-opacity: 0.85; stroke-width: 0.5"/>
     <use xlink:href="#m43ec2309e3" x="218.884169" y="135.266198" style="fill: #c44e52; fill-opacity: 0.85; stroke: #ffffff; stroke-opacity: 0.85; stroke-width: 0.5"/>
     <use xlink:href="#m43ec2309e3" x="179.636788" y="52.654568" style="fill: #c44e52; fill-opacity: 0.85; stroke: #ffffff; stroke-opacity: 0.85; stroke-width: 0.5"/>
     <use xlink:href="#m43ec2309e3" x="223.206953" y="68.625541" style="fill: #c44e52; fill-opacity: 0.85; stroke: #ffffff; stroke-opacity: 0.85; stroke-width: 0.5"/>
     <use xlink:href="#m43ec2309e3" x="239.727875" y="54.141928" style="fill: #c44e52; fill-opacity: 0.85; stroke: #ffffff; stroke-opacity: 0.85; stroke-width: 0.5"/>
     <use xlink:href="#m43ec2309e3" x="231.209597" y="74.171639" style="fill: #c44e52; fill-opacity: 0.85; stroke: #ffffff; stroke-opacity: 0.85; stroke-width: 0.5"/>
    </g>
   </g>
   <g id="PathCollection_3">
    <defs>
     <path id="md9b51abed6" d="M 0 2.915476 
C 0.773193 2.915476 1.514823 2.608283 2.061553 2.061553 
C 2.608283 1.514823 2.915476 0.773193 2.915476 0 
C 2.915476 -0.773193 2.608283 -1.514823 2.061553 -2.061553 
C 1.514823 -2.608283 0.773193 -2.915476 0 -2.915476 
C -0.773193 -2.915476 -1.514823 -2.608283 -2.061553 -2.061553 
C -2.608283 -1.514823 -2.915476 -0.773193 -2.915476 0 
C -2.915476 0.773193 -2.608283 1.514823 -2.061553 2.061553 
C -1.514823 2.608283 -0.773193 2.915476 0 2.915476 
z
" style="stroke: #ffffff; stroke-opacity: 0.85; stroke-width: 0.5"/>
    </defs>
    <g clip-path="url(#p2d8810d0b7)">
     <use xlink:href="#md9b51abed6" x="307.213577" y="58.719027" style="fill: #55a868; fill-opacity: 0.85; stroke: #ffffff; stroke-opacity: 0.85; stroke-width: 0.5"/>
     <use xlink:href="#md9b51abed6" x="272.360618" y="94.650168" style="fill: #55a868; fill-opacity: 0.85; stroke: #ffffff; stroke-opacity: 0.85; stroke-width: 0.5"/>
     <use xlink:href="#md9b51abed6" x="303.317813" y="62.37136" style="fill: #55a868; fill-opacity: 0.85; stroke: #ffffff; stroke-opacity: 0.85; stroke-width: 0.5"/>
     <use xlink:href="#md9b51abed6" x="314.294153" y="64.166863" style="fill: #55a868; fill-opacity: 0.85; stroke: #ffffff; stroke-opacity: 0.85; stroke-width: 0.5"/>
     <use xlink:href="#md9b51abed6" x="319.169469" y="58.369204" style="fill: #55a868; fill-opacity: 0.85; stroke: #ffffff; stroke-opacity: 0.85; stroke-width: 0.5"/>
     <use xlink:href="#md9b51abed6" x="277.677339" y="58.512878" style="fill: #55a868; fill-opacity: 0.85; stroke: #ffffff; stroke-opacity: 0.85; stroke-width: 0.5"/>
    </g>
   </g>
   <g id="text_17">
    <!-- Pearson $r=-0.49$ ($p=0.011$) -->
    <g transform="translate(62.911089 228.154475) scale(0.09 -0.09)">
     <defs>
      <path id="TimesNewRomanPSMT-50" d="M 1313 1984 
L 1313 750 
Q 1313 350 1400 253 
Q 1519 116 1759 116 
L 1922 116 
L 1922 0 
L 106 0 
L 106 116 
L 266 116 
Q 534 116 650 291 
Q 713 388 713 750 
L 713 3488 
Q 713 3888 628 3984 
Q 506 4122 266 4122 
L 106 4122 
L 106 4238 
L 1659 4238 
Q 2228 4238 2556 4120 
Q 2884 4003 3109 3725 
Q 3334 3447 3334 3066 
Q 3334 2547 2992 2222 
Q 2650 1897 2025 1897 
Q 1872 1897 1694 1919 
Q 1516 1941 1313 1984 
z
M 1313 2163 
Q 1478 2131 1606 2115 
Q 1734 2100 1825 2100 
Q 2150 2100 2386 2351 
Q 2622 2603 2622 3003 
Q 2622 3278 2509 3514 
Q 2397 3750 2190 3867 
Q 1984 3984 1722 3984 
Q 1563 3984 1313 3925 
L 1313 2163 
z
" transform="scale(0.015625)"/>
      <path id="TimesNewRomanPSMT-73" d="M 2050 2947 
L 2050 1972 
L 1947 1972 
Q 1828 2431 1642 2597 
Q 1456 2763 1169 2763 
Q 950 2763 815 2647 
Q 681 2531 681 2391 
Q 681 2216 781 2091 
Q 878 1963 1175 1819 
L 1631 1597 
Q 2266 1288 2266 781 
Q 2266 391 1970 151 
Q 1675 -88 1309 -88 
Q 1047 -88 709 6 
Q 606 38 541 38 
Q 469 38 428 -44 
L 325 -44 
L 325 978 
L 428 978 
Q 516 541 762 319 
Q 1009 97 1316 97 
Q 1531 97 1667 223 
Q 1803 350 1803 528 
Q 1803 744 1651 891 
Q 1500 1038 1047 1263 
Q 594 1488 453 1669 
Q 313 1847 313 2119 
Q 313 2472 555 2709 
Q 797 2947 1181 2947 
Q 1350 2947 1591 2875 
Q 1750 2828 1803 2828 
Q 1853 2828 1881 2850 
Q 1909 2872 1947 2947 
L 2050 2947 
z
" transform="scale(0.015625)"/>
      <path id="STIXGeneral-Italic-72" d="M 1126 1427 
L 1229 1651 
Q 1446 2131 1830 2534 
Q 2106 2822 2336 2822 
Q 2470 2822 2553 2732 
Q 2637 2643 2637 2496 
Q 2637 2349 2557 2249 
Q 2477 2150 2336 2150 
Q 2214 2150 2112 2317 
Q 2061 2406 2010 2406 
Q 1837 2406 1485 1805 
Q 1267 1434 1136 1104 
Q 1005 774 774 0 
L 288 0 
L 806 1869 
Q 909 2246 909 2394 
Q 909 2560 666 2560 
Q 614 2560 467 2541 
L 467 2650 
L 1459 2822 
L 1478 2810 
L 1126 1427 
z
" transform="scale(0.015625)"/>
      <path id="STIXGeneral-Regular-30" d="M 3046 2112 
Q 3046 1683 2963 1302 
Q 2880 922 2717 602 
Q 2554 282 2266 96 
Q 1978 -90 1600 -90 
Q 1210 -90 915 108 
Q 621 307 461 640 
Q 301 973 227 1350 
Q 154 1728 154 2150 
Q 154 2746 301 3222 
Q 448 3699 790 4012 
Q 1133 4326 1626 4326 
Q 2253 4326 2649 3712 
Q 3046 3098 3046 2112 
z
M 2432 2080 
Q 2432 3091 2217 3625 
Q 2003 4160 1587 4160 
Q 1190 4160 979 3622 
Q 768 3085 768 2106 
Q 768 1120 979 598 
Q 1190 77 1600 77 
Q 2003 77 2217 598 
Q 2432 1120 2432 2080 
z
" transform="scale(0.015625)"/>
      <path id="STIXGeneral-Regular-2e" d="M 1158 275 
Q 1158 134 1052 32 
Q 947 -70 800 -70 
Q 653 -70 550 32 
Q 448 134 448 281 
Q 448 429 553 534 
Q 659 640 806 640 
Q 947 640 1052 531 
Q 1158 422 1158 275 
z
" transform="scale(0.015625)"/>
      <path id="STIXGeneral-Regular-34" d="M 3027 1069 
L 2368 1069 
L 2368 0 
L 1869 0 
L 1869 1069 
L 77 1069 
L 77 1478 
L 2086 4326 
L 2368 4326 
L 2368 1478 
L 3027 1478 
L 3027 1069 
z
M 1869 1478 
L 1869 3674 
L 333 1478 
L 1869 1478 
z
" transform="scale(0.015625)"/>
      <path id="STIXGeneral-Regular-39" d="M 378 -141 
L 358 -13 
Q 1094 115 1603 608 
Q 2112 1101 2304 1882 
Q 1933 1517 1344 1517 
Q 826 1517 509 1875 
Q 192 2234 192 2816 
Q 192 3462 573 3894 
Q 954 4326 1523 4326 
Q 2131 4326 2528 3840 
Q 2938 3328 2938 2522 
Q 2938 1958 2742 1462 
Q 2547 966 2170 621 
Q 1773 262 1395 105 
Q 1018 -51 378 -141 
z
M 2317 2272 
L 2317 2522 
Q 2317 4147 1472 4147 
Q 1171 4147 1005 3930 
Q 909 3802 845 3546 
Q 781 3290 781 3034 
Q 781 2464 995 2128 
Q 1210 1792 1568 1792 
Q 1824 1792 2070 1917 
Q 2317 2042 2317 2272 
z
" transform="scale(0.015625)"/>
      <path id="STIXGeneral-Italic-70" d="M 1376 2739 
L 1190 2099 
Q 1670 2822 2285 2822 
Q 2637 2822 2829 2611 
Q 3021 2400 3021 2022 
Q 3021 1235 2422 582 
Q 1824 -70 1120 -70 
Q 890 -70 678 38 
Q 422 -1018 422 -1024 
Q 422 -1126 508 -1168 
Q 595 -1210 819 -1210 
L 819 -1312 
L -480 -1312 
L -480 -1210 
Q -275 -1203 -188 -1120 
Q -102 -1037 -45 -806 
L 691 1958 
Q 794 2330 794 2413 
Q 794 2586 512 2586 
L 371 2586 
L 358 2682 
L 1357 2822 
Q 1389 2822 1389 2797 
Q 1382 2765 1376 2739 
z
M 2445 2003 
Q 2445 2285 2352 2416 
Q 2259 2547 2048 2547 
Q 1798 2547 1548 2329 
Q 1299 2112 1184 1818 
Q 1043 1453 905 953 
Q 768 454 768 294 
Q 768 186 854 118 
Q 941 51 1075 51 
Q 1574 51 2003 659 
Q 2445 1274 2445 2003 
z
" transform="scale(0.015625)"/>
     </defs>
     <use xlink:href="#TimesNewRomanPSMT-50" transform="translate(0 0.5625)"/>
     <use xlink:href="#TimesNewRomanPSMT-65" transform="translate(55.615234 0.5625)"/>
     <use xlink:href="#TimesNewRomanPSMT-61" transform="translate(100 0.5625)"/>
     <use xlink:href="#TimesNewRomanPSMT-72" transform="translate(144.384766 0.5625)"/>
     <use xlink:href="#TimesNewRomanPSMT-73" transform="translate(177.685547 0.5625)"/>
     <use xlink:href="#TimesNewRomanPSMT-6f" transform="translate(216.601562 0.5625)"/>
     <use xlink:href="#TimesNewRomanPSMT-6e" transform="translate(266.601562 0.5625)"/>
     <use xlink:href="#TimesNewRomanPSMT-20" transform="translate(316.601562 0.5625)"/>
     <use xlink:href="#STIXGeneral-Italic-72" transform="translate(341.601562 0.5625)"/>
     <use xlink:href="#STIXGeneral-Regular-3d" transform="translate(394.941553 0.5625)"/>
     <use xlink:href="#STIXGeneral-Regular-2212" transform="translate(477.881534 0.5625)"/>
     <use xlink:href="#STIXGeneral-Regular-30" transform="translate(546.381519 0.5625)"/>
     <use xlink:href="#STIXGeneral-Regular-2e" transform="translate(596.381503 0.5625)"/>
     <use xlink:href="#STIXGeneral-Regular-34" transform="translate(621.381488 0.5625)"/>
     <use xlink:href="#STIXGeneral-Regular-39" transform="translate(671.381473 0.5625)"/>
     <use xlink:href="#TimesNewRomanPSMT-20" transform="translate(721.381458 0.5625)"/>
     <use xlink:href="#TimesNewRomanPSMT-28" transform="translate(746.381458 0.5625)"/>
     <use xlink:href="#STIXGeneral-Italic-70" transform="translate(779.682239 0.5625)"/>
     <use xlink:href="#STIXGeneral-Regular-3d" transform="translate(844.522229 0.5625)"/>
     <use xlink:href="#STIXGeneral-Regular-30" transform="translate(927.46221 0.5625)"/>
     <use xlink:href="#STIXGeneral-Regular-2e" transform="translate(977.462195 0.5625)"/>
     <use xlink:href="#STIXGeneral-Regular-30" transform="translate(1002.46218 0.5625)"/>
     <use xlink:href="#STIXGeneral-Regular-31" transform="translate(1052.462164 0.5625)"/>
     <use xlink:href="#STIXGeneral-Regular-31" transform="translate(1102.462149 0.5625)"/>
     <use xlink:href="#TimesNewRomanPSMT-29" transform="translate(1152.462134 0.5625)"/>
    </g>
    <!-- Spearman $\rho=-0.72$ -->
    <g transform="translate(62.911089 237.633725) scale(0.09 -0.09)">
     <defs>
      <path id="TimesNewRomanPSMT-53" d="M 2934 4334 
L 2934 2869 
L 2819 2869 
Q 2763 3291 2617 3541 
Q 2472 3791 2203 3937 
Q 1934 4084 1647 4084 
Q 1322 4084 1109 3886 
Q 897 3688 897 3434 
Q 897 3241 1031 3081 
Q 1225 2847 1953 2456 
Q 2547 2138 2764 1967 
Q 2981 1797 3098 1565 
Q 3216 1334 3216 1081 
Q 3216 600 2842 251 
Q 2469 -97 1881 -97 
Q 1697 -97 1534 -69 
Q 1438 -53 1133 45 
Q 828 144 747 144 
Q 669 144 623 97 
Q 578 50 556 -97 
L 441 -97 
L 441 1356 
L 556 1356 
Q 638 900 775 673 
Q 913 447 1195 297 
Q 1478 147 1816 147 
Q 2206 147 2432 353 
Q 2659 559 2659 841 
Q 2659 997 2573 1156 
Q 2488 1316 2306 1453 
Q 2184 1547 1640 1851 
Q 1097 2156 867 2337 
Q 638 2519 519 2737 
Q 400 2956 400 3219 
Q 400 3675 750 4004 
Q 1100 4334 1641 4334 
Q 1978 4334 2356 4169 
Q 2531 4091 2603 4091 
Q 2684 4091 2736 4139 
Q 2788 4188 2819 4334 
L 2934 4334 
z
" transform="scale(0.015625)"/>
      <path id="TimesNewRomanPSMT-6d" d="M 1050 2338 
Q 1363 2650 1419 2697 
Q 1559 2816 1721 2881 
Q 1884 2947 2044 2947 
Q 2313 2947 2506 2790 
Q 2700 2634 2766 2338 
Q 3088 2713 3309 2830 
Q 3531 2947 3766 2947 
Q 3994 2947 4170 2830 
Q 4347 2713 4450 2447 
Q 4519 2266 4519 1878 
L 4519 647 
Q 4519 378 4559 278 
Q 4591 209 4675 161 
Q 4759 113 4950 113 
L 4950 0 
L 3538 0 
L 3538 113 
L 3597 113 
Q 3781 113 3884 184 
Q 3956 234 3988 344 
Q 4000 397 4000 647 
L 4000 1878 
Q 4000 2228 3916 2372 
Q 3794 2572 3525 2572 
Q 3359 2572 3192 2489 
Q 3025 2406 2788 2181 
L 2781 2147 
L 2788 2013 
L 2788 647 
Q 2788 353 2820 281 
Q 2853 209 2943 161 
Q 3034 113 3253 113 
L 3253 0 
L 1806 0 
L 1806 113 
Q 2044 113 2133 169 
Q 2222 225 2256 338 
Q 2272 391 2272 647 
L 2272 1878 
Q 2272 2228 2169 2381 
Q 2031 2581 1784 2581 
Q 1616 2581 1450 2491 
Q 1191 2353 1050 2181 
L 1050 647 
Q 1050 366 1089 281 
Q 1128 197 1204 155 
Q 1281 113 1516 113 
L 1516 0 
L 100 0 
L 100 113 
Q 297 113 375 155 
Q 453 197 493 289 
Q 534 381 534 647 
L 534 1741 
Q 534 2213 506 2350 
Q 484 2453 437 2492 
Q 391 2531 309 2531 
Q 222 2531 100 2484 
L 53 2597 
L 916 2947 
L 1050 2947 
L 1050 2338 
z
" transform="scale(0.015625)"/>
      <path id="STIXGeneral-Regular-37" d="M 2874 4134 
L 1517 -51 
L 1101 -51 
L 2368 3763 
L 992 3763 
Q 717 3763 582 3667 
Q 448 3571 243 3238 
L 128 3296 
L 512 4237 
L 2874 4237 
L 2874 4134 
z
" transform="scale(0.015625)"/>
     </defs>
     <use xlink:href="#TimesNewRomanPSMT-53" transform="translate(0 0.28125)"/>
     <use xlink:href="#TimesNewRomanPSMT-70" transform="translate(55.615234 0.28125)"/>
     <use xlink:href="#TimesNewRomanPSMT-65" transform="translate(105.615234 0.28125)"/>
     <use xlink:href="#TimesNewRomanPSMT-61" transform="translate(150 0.28125)"/>
     <use xlink:href="#TimesNewRomanPSMT-72" transform="translate(194.384766 0.28125)"/>
     <use xlink:href="#TimesNewRomanPSMT-6d" transform="translate(227.685547 0.28125)"/>
     <use xlink:href="#TimesNewRomanPSMT-61" transform="translate(305.46875 0.28125)"/>
     <use xlink:href="#TimesNewRomanPSMT-6e" transform="translate(349.853516 0.28125)"/>
     <use xlink:href="#TimesNewRomanPSMT-20" transform="translate(399.853516 0.28125)"/>
     <use xlink:href="#STIXGeneral-Italic-3c1" transform="translate(424.853516 0.28125)"/>
     <use xlink:href="#STIXGeneral-Regular-3d" transform="translate(489.693506 0.28125)"/>
     <use xlink:href="#STIXGeneral-Regular-2212" transform="translate(572.633487 0.28125)"/>
     <use xlink:href="#STIXGeneral-Regular-30" transform="translate(641.133472 0.28125)"/>
     <use xlink:href="#STIXGeneral-Regular-2e" transform="translate(691.133456 0.28125)"/>
     <use xlink:href="#STIXGeneral-Regular-37" transform="translate(716.133441 0.28125)"/>
     <use xlink:href="#STIXGeneral-Regular-32" transform="translate(766.133426 0.28125)"/>
    </g>
   </g>
   <g id="text_18">
    <!-- Distance topology -->
    <g transform="translate(151.630406 14.838125) scale(0.11 -0.11)">
     <defs>
      <path id="TimesNewRomanPSMT-44" d="M 109 0 
L 109 116 
L 269 116 
Q 538 116 650 288 
Q 719 391 719 750 
L 719 3488 
Q 719 3884 631 3984 
Q 509 4122 269 4122 
L 109 4122 
L 109 4238 
L 1834 4238 
Q 2784 4238 3279 4022 
Q 3775 3806 4076 3303 
Q 4378 2800 4378 2141 
Q 4378 1256 3841 663 
Q 3238 0 2003 0 
L 109 0 
z
M 1319 306 
Q 1716 219 1984 219 
Q 2709 219 3187 728 
Q 3666 1238 3666 2109 
Q 3666 2988 3187 3494 
Q 2709 4000 1959 4000 
Q 1678 4000 1319 3909 
L 1319 306 
z
" transform="scale(0.015625)"/>
      <path id="TimesNewRomanPSMT-67" d="M 966 1044 
Q 703 1172 562 1401 
Q 422 1631 422 1909 
Q 422 2334 742 2640 
Q 1063 2947 1563 2947 
Q 1972 2947 2272 2747 
L 2878 2747 
Q 3013 2747 3034 2739 
Q 3056 2731 3066 2713 
Q 3084 2684 3084 2613 
Q 3084 2531 3069 2500 
Q 3059 2484 3036 2475 
Q 3013 2466 2878 2466 
L 2506 2466 
Q 2681 2241 2681 1891 
Q 2681 1491 2375 1206 
Q 2069 922 1553 922 
Q 1341 922 1119 984 
Q 981 866 932 777 
Q 884 688 884 625 
Q 884 572 936 522 
Q 988 472 1138 450 
Q 1225 438 1575 428 
Q 2219 413 2409 384 
Q 2700 344 2873 169 
Q 3047 -6 3047 -263 
Q 3047 -616 2716 -925 
Q 2228 -1381 1444 -1381 
Q 841 -1381 425 -1109 
Q 191 -953 191 -784 
Q 191 -709 225 -634 
Q 278 -519 444 -313 
Q 466 -284 763 25 
Q 600 122 533 198 
Q 466 275 466 372 
Q 466 481 555 628 
Q 644 775 966 1044 
z
M 1509 2797 
Q 1278 2797 1122 2612 
Q 966 2428 966 2047 
Q 966 1553 1178 1281 
Q 1341 1075 1591 1075 
Q 1828 1075 1981 1253 
Q 2134 1431 2134 1813 
Q 2134 2309 1919 2591 
Q 1759 2797 1509 2797 
z
M 934 0 
Q 788 -159 713 -296 
Q 638 -434 638 -550 
Q 638 -700 819 -813 
Q 1131 -1006 1722 -1006 
Q 2284 -1006 2551 -807 
Q 2819 -609 2819 -384 
Q 2819 -222 2659 -153 
Q 2497 -84 2016 -72 
Q 1313 -53 934 0 
z
" transform="scale(0.015625)"/>
     </defs>
     <use xlink:href="#TimesNewRomanPSMT-44"/>
     <use xlink:href="#TimesNewRomanPSMT-69" transform="translate(72.216797 0)"/>
     <use xlink:href="#TimesNewRomanPSMT-73" transform="translate(100 0)"/>
     <use xlink:href="#TimesNewRomanPSMT-74" transform="translate(138.916016 0)"/>
     <use xlink:href="#TimesNewRomanPSMT-61" transform="translate(166.699219 0)"/>
     <use xlink:href="#TimesNewRomanPSMT-6e" transform="translate(211.083984 0)"/>
     <use xlink:href="#TimesNewRomanPSMT-63" transform="translate(261.083984 0)"/>
     <use xlink:href="#TimesNewRomanPSMT-65" transform="translate(305.46875 0)"/>
     <use xlink:href="#TimesNewRomanPSMT-20" transform="translate(349.853516 0)"/>
     <use xlink:href="#TimesNewRomanPSMT-74" transform="translate(374.853516 0)"/>
     <use xlink:href="#TimesNewRomanPSMT-6f" transform="translate(402.636719 0)"/>
     <use xlink:href="#TimesNewRomanPSMT-70" transform="translate(452.636719 0)"/>
     <use xlink:href="#TimesNewRomanPSMT-6f" transform="translate(502.636719 0)"/>
     <use xlink:href="#TimesNewRomanPSMT-6c" transform="translate(552.636719 0)"/>
     <use xlink:href="#TimesNewRomanPSMT-6f" transform="translate(580.419922 0)"/>
     <use xlink:href="#TimesNewRomanPSMT-67" transform="translate(630.419922 0)"/>
     <use xlink:href="#TimesNewRomanPSMT-79" transform="translate(680.419922 0)"/>
    </g>
   </g>
   <g id="legend_1">
    <g id="PathCollection_4">
     <g>
      <use xlink:href="#m9e0112af2d" x="279.608938" y="32.875625" style="fill: #4c72b0; fill-opacity: 0.85; stroke: #ffffff; stroke-opacity: 0.85; stroke-width: 0.5"/>
     </g>
    </g>
    <g id="text_19">
     <!-- Beijing -->
     <g transform="translate(295.808938 35.238125) scale(0.09 -0.09)">
      <defs>
       <path id="TimesNewRomanPSMT-42" d="M 2956 2163 
Q 3397 2069 3616 1863 
Q 3919 1575 3919 1159 
Q 3919 844 3719 555 
Q 3519 266 3170 133 
Q 2822 0 2106 0 
L 106 0 
L 106 116 
L 266 116 
Q 531 116 647 284 
Q 719 394 719 750 
L 719 3488 
Q 719 3881 628 3984 
Q 506 4122 266 4122 
L 106 4122 
L 106 4238 
L 1938 4238 
Q 2450 4238 2759 4163 
Q 3228 4050 3475 3764 
Q 3722 3478 3722 3106 
Q 3722 2788 3528 2536 
Q 3334 2284 2956 2163 
z
M 1319 2331 
Q 1434 2309 1582 2298 
Q 1731 2288 1909 2288 
Q 2366 2288 2595 2386 
Q 2825 2484 2947 2687 
Q 3069 2891 3069 3131 
Q 3069 3503 2766 3765 
Q 2463 4028 1881 4028 
Q 1569 4028 1319 3959 
L 1319 2331 
z
M 1319 306 
Q 1681 222 2034 222 
Q 2600 222 2897 476 
Q 3194 731 3194 1106 
Q 3194 1353 3059 1581 
Q 2925 1809 2622 1940 
Q 2319 2072 1872 2072 
Q 1678 2072 1540 2065 
Q 1403 2059 1319 2044 
L 1319 306 
z
" transform="scale(0.015625)"/>
       <path id="TimesNewRomanPSMT-6a" d="M 925 4447 
Q 1059 4447 1153 4353 
Q 1247 4259 1247 4125 
Q 1247 3994 1153 3900 
Q 1059 3806 925 3806 
Q 794 3806 700 3900 
Q 606 3994 606 4125 
Q 606 4259 700 4353 
Q 794 4447 925 4447 
z
M 1194 2947 
L 1194 66 
Q 1194 -669 881 -1025 
Q 569 -1381 69 -1381 
Q -216 -1381 -353 -1278 
Q -491 -1175 -491 -1066 
Q -491 -956 -414 -878 
Q -338 -800 -234 -800 
Q -153 -800 -69 -841 
Q -16 -863 136 -998 
Q 288 -1134 391 -1134 
Q 466 -1134 537 -1076 
Q 609 -1019 643 -883 
Q 678 -747 678 -294 
L 678 1744 
Q 678 2216 650 2350 
Q 628 2453 581 2492 
Q 534 2531 453 2531 
Q 366 2531 241 2484 
L 197 2597 
L 1059 2947 
L 1194 2947 
z
" transform="scale(0.015625)"/>
      </defs>
      <use xlink:href="#TimesNewRomanPSMT-42"/>
      <use xlink:href="#TimesNewRomanPSMT-65" transform="translate(66.699219 0)"/>
      <use xlink:href="#TimesNewRomanPSMT-69" transform="translate(111.083984 0)"/>
      <use xlink:href="#TimesNewRomanPSMT-6a" transform="translate(138.867188 0)"/>
      <use xlink:href="#TimesNewRomanPSMT-69" transform="translate(166.650391 0)"/>
      <use xlink:href="#TimesNewRomanPSMT-6e" transform="translate(194.433594 0)"/>
      <use xlink:href="#TimesNewRomanPSMT-67" transform="translate(244.433594 0)"/>
     </g>
    </g>
    <g id="PathCollection_5">
     <g>
      <use xlink:href="#m43ec2309e3" x="279.608938" y="45.617656" style="fill: #c44e52; fill-opacity: 0.85; stroke: #ffffff; stroke-opacity: 0.85; stroke-width: 0.5"/>
     </g>
    </g>
    <g id="text_20">
     <!-- London -->
     <g transform="translate(295.808938 47.980156) scale(0.09 -0.09)">
      <defs>
       <path id="TimesNewRomanPSMT-64" d="M 2222 322 
Q 2013 103 1813 7 
Q 1613 -88 1381 -88 
Q 913 -88 563 304 
Q 213 697 213 1313 
Q 213 1928 600 2439 
Q 988 2950 1597 2950 
Q 1975 2950 2222 2709 
L 2222 3238 
Q 2222 3728 2198 3840 
Q 2175 3953 2125 3993 
Q 2075 4034 2000 4034 
Q 1919 4034 1784 3984 
L 1744 4094 
L 2597 4444 
L 2738 4444 
L 2738 1134 
Q 2738 631 2761 520 
Q 2784 409 2836 365 
Q 2888 322 2956 322 
Q 3041 322 3181 375 
L 3216 266 
L 2366 -88 
L 2222 -88 
L 2222 322 
z
M 2222 541 
L 2222 2016 
Q 2203 2228 2109 2403 
Q 2016 2578 1861 2667 
Q 1706 2756 1559 2756 
Q 1284 2756 1069 2509 
Q 784 2184 784 1559 
Q 784 928 1059 592 
Q 1334 256 1672 256 
Q 1956 256 2222 541 
z
" transform="scale(0.015625)"/>
      </defs>
      <use xlink:href="#TimesNewRomanPSMT-4c"/>
      <use xlink:href="#TimesNewRomanPSMT-6f" transform="translate(61.083984 0)"/>
      <use xlink:href="#TimesNewRomanPSMT-6e" transform="translate(111.083984 0)"/>
      <use xlink:href="#TimesNewRomanPSMT-64" transform="translate(161.083984 0)"/>
      <use xlink:href="#TimesNewRomanPSMT-6f" transform="translate(211.083984 0)"/>
      <use xlink:href="#TimesNewRomanPSMT-6e" transform="translate(261.083984 0)"/>
     </g>
    </g>
    <g id="PathCollection_6">
     <g>
      <use xlink:href="#md9b51abed6" x="279.608938" y="58.342812" style="fill: #55a868; fill-opacity: 0.85; stroke: #ffffff; stroke-opacity: 0.85; stroke-width: 0.5"/>
     </g>
    </g>
    <g id="text_21">
     <!-- Madrid -->
     <g transform="translate(295.808938 60.705312) scale(0.09 -0.09)">
      <defs>
       <path id="TimesNewRomanPSMT-4d" d="M 2619 0 
L 981 3566 
L 981 734 
Q 981 344 1066 247 
Q 1181 116 1431 116 
L 1581 116 
L 1581 0 
L 106 0 
L 106 116 
L 256 116 
Q 525 116 638 278 
Q 706 378 706 734 
L 706 3503 
Q 706 3784 644 3909 
Q 600 4000 483 4061 
Q 366 4122 106 4122 
L 106 4238 
L 1306 4238 
L 2844 922 
L 4356 4238 
L 5556 4238 
L 5556 4122 
L 5409 4122 
Q 5138 4122 5025 3959 
Q 4956 3859 4956 3503 
L 4956 734 
Q 4956 344 5044 247 
Q 5159 116 5409 116 
L 5556 116 
L 5556 0 
L 3756 0 
L 3756 116 
L 3906 116 
Q 4178 116 4288 278 
Q 4356 378 4356 734 
L 4356 3566 
L 2722 0 
L 2619 0 
z
" transform="scale(0.015625)"/>
      </defs>
      <use xlink:href="#TimesNewRomanPSMT-4d"/>
      <use xlink:href="#TimesNewRomanPSMT-61" transform="translate(88.916016 0)"/>
      <use xlink:href="#TimesNewRomanPSMT-64" transform="translate(133.300781 0)"/>
      <use xlink:href="#TimesNewRomanPSMT-72" transform="translate(183.300781 0)"/>
      <use xlink:href="#TimesNewRomanPSMT-69" transform="translate(216.601562 0)"/>
      <use xlink:href="#TimesNewRomanPSMT-64" transform="translate(244.384766 0)"/>
     </g>
    </g>
   </g>
  </g>
  <g id="axes_2">
   <g id="patch_7">
    <path d="M 385.017969 253.578125 
L 665.220969 253.578125 
L 665.220969 20.838125 
L 385.017969 20.838125 
z
" style="fill: #ffffff"/>
   </g>
   <g id="line2d_17">
    <path d="M 385.017969 30.38702 
L 665.220969 30.38702 
" clip-path="url(#p86ee1497b3)" style="fill: none; stroke: #b2b2b2; stroke-width: 0.7; stroke-linecap: square"/>
   </g>
   <g id="matplotlib.axis_3">
    <g id="xtick_6">
     <g id="line2d_18">
      <g>
       <use xlink:href="#m186465897a" x="424.63632" y="253.578125" style="stroke: #000000; stroke-width: 0.8"/>
      </g>
     </g>
     <g id="text_22">
      <!-- 0.1 -->
      <g transform="translate(417.76132 264.71625) scale(0.11 -0.11)">
       <use xlink:href="#TimesNewRomanPSMT-30"/>
       <use xlink:href="#TimesNewRomanPSMT-2e" transform="translate(50 0)"/>
       <use xlink:href="#TimesNewRomanPSMT-31" transform="translate(75 0)"/>
      </g>
     </g>
    </g>
    <g id="xtick_7">
     <g id="line2d_19">
      <g>
       <use xlink:href="#m186465897a" x="473.896946" y="253.578125" style="stroke: #000000; stroke-width: 0.8"/>
      </g>
     </g>
     <g id="text_23">
      <!-- 0.2 -->
      <g transform="translate(467.021946 264.71625) scale(0.11 -0.11)">
       <use xlink:href="#TimesNewRomanPSMT-30"/>
       <use xlink:href="#TimesNewRomanPSMT-2e" transform="translate(50 0)"/>
       <use xlink:href="#TimesNewRomanPSMT-32" transform="translate(75 0)"/>
      </g>
     </g>
    </g>
    <g id="xtick_8">
     <g id="line2d_20">
      <g>
       <use xlink:href="#m186465897a" x="523.157573" y="253.578125" style="stroke: #000000; stroke-width: 0.8"/>
      </g>
     </g>
     <g id="text_24">
      <!-- 0.3 -->
      <g transform="translate(516.282573 264.71625) scale(0.11 -0.11)">
       <use xlink:href="#TimesNewRomanPSMT-30"/>
       <use xlink:href="#TimesNewRomanPSMT-2e" transform="translate(50 0)"/>
       <use xlink:href="#TimesNewRomanPSMT-33" transform="translate(75 0)"/>
      </g>
     </g>
    </g>
    <g id="xtick_9">
     <g id="line2d_21">
      <g>
       <use xlink:href="#m186465897a" x="572.4182" y="253.578125" style="stroke: #000000; stroke-width: 0.8"/>
      </g>
     </g>
     <g id="text_25">
      <!-- 0.4 -->
      <g transform="translate(565.5432 264.71625) scale(0.11 -0.11)">
       <use xlink:href="#TimesNewRomanPSMT-30"/>
       <use xlink:href="#TimesNewRomanPSMT-2e" transform="translate(50 0)"/>
       <use xlink:href="#TimesNewRomanPSMT-34" transform="translate(75 0)"/>
      </g>
     </g>
    </g>
    <g id="xtick_10">
     <g id="line2d_22">
      <g>
       <use xlink:href="#m186465897a" x="621.678827" y="253.578125" style="stroke: #000000; stroke-width: 0.8"/>
      </g>
     </g>
     <g id="text_26">
      <!-- 0.5 -->
      <g transform="translate(614.803827 264.71625) scale(0.11 -0.11)">
       <use xlink:href="#TimesNewRomanPSMT-30"/>
       <use xlink:href="#TimesNewRomanPSMT-2e" transform="translate(50 0)"/>
       <use xlink:href="#TimesNewRomanPSMT-35" transform="translate(75 0)"/>
      </g>
     </g>
    </g>
    <g id="text_27">
     <!-- Local heterophily $h_i = 1-\overline{\rho}_{\mathrm{neigh}}$ -->
     <g transform="translate(455.599469 278.769219) scale(0.11 -0.11)">
      <use xlink:href="#TimesNewRomanPSMT-4c" transform="translate(0 0.5625)"/>
      <use xlink:href="#TimesNewRomanPSMT-6f" transform="translate(61.083984 0.5625)"/>
      <use xlink:href="#TimesNewRomanPSMT-63" transform="translate(111.083984 0.5625)"/>
      <use xlink:href="#TimesNewRomanPSMT-61" transform="translate(155.46875 0.5625)"/>
      <use xlink:href="#TimesNewRomanPSMT-6c" transform="translate(199.853516 0.5625)"/>
      <use xlink:href="#TimesNewRomanPSMT-20" transform="translate(227.636719 0.5625)"/>
      <use xlink:href="#TimesNewRomanPSMT-68" transform="translate(252.636719 0.5625)"/>
      <use xlink:href="#TimesNewRomanPSMT-65" transform="translate(302.636719 0.5625)"/>
      <use xlink:href="#TimesNewRomanPSMT-74" transform="translate(347.021484 0.5625)"/>
      <use xlink:href="#TimesNewRomanPSMT-65" transform="translate(374.804688 0.5625)"/>
      <use xlink:href="#TimesNewRomanPSMT-72" transform="translate(419.189453 0.5625)"/>
      <use xlink:href="#TimesNewRomanPSMT-6f" transform="translate(452.490234 0.5625)"/>
      <use xlink:href="#TimesNewRomanPSMT-70" transform="translate(502.490234 0.5625)"/>
      <use xlink:href="#TimesNewRomanPSMT-68" transform="translate(552.490234 0.5625)"/>
      <use xlink:href="#TimesNewRomanPSMT-69" transform="translate(602.490234 0.5625)"/>
      <use xlink:href="#TimesNewRomanPSMT-6c" transform="translate(630.273438 0.5625)"/>
      <use xlink:href="#TimesNewRomanPSMT-79" transform="translate(658.056641 0.5625)"/>
      <use xlink:href="#TimesNewRomanPSMT-20" transform="translate(708.056641 0.5625)"/>
      <use xlink:href="#STIXGeneral-Italic-68" transform="translate(733.056641 0.5625)"/>
      <use xlink:href="#STIXGeneral-Italic-69" transform="translate(783.056625 -12.665625) scale(0.7)"/>
      <use xlink:href="#STIXGeneral-Regular-3d" transform="translate(821.365988 0.5625)"/>
      <use xlink:href="#STIXGeneral-Regular-31" transform="translate(904.305969 0.5625)"/>
      <use xlink:href="#STIXGeneral-Regular-2212" transform="translate(968.74595 0.5625)"/>
      <use xlink:href="#STIXGeneral-Italic-3c1" transform="translate(1051.685931 1.0625)"/>
      <use xlink:href="#STIXGeneral-Regular-6e" transform="translate(1103.629207 -12.665625) scale(0.7)"/>
      <use xlink:href="#STIXGeneral-Regular-65" transform="translate(1138.629196 -12.665625) scale(0.7)"/>
      <use xlink:href="#STIXGeneral-Regular-69" transform="translate(1169.709192 -12.665625) scale(0.7)"/>
      <use xlink:href="#STIXGeneral-Regular-67" transform="translate(1189.169183 -12.665625) scale(0.7)"/>
      <use xlink:href="#STIXGeneral-Regular-68" transform="translate(1224.169172 -12.665625) scale(0.7)"/>
      <path d="M 1051.685931 56.90625 
L 1051.685931 63.15625 
L 1102.085925 63.15625 
L 1102.085925 56.90625 
L 1051.685931 56.90625 
z
"/>
     </g>
    </g>
   </g>
   <g id="matplotlib.axis_4">
    <g id="ytick_10">
     <g id="line2d_23">
      <g>
       <use xlink:href="#m5a2593b47c" x="385.017969" y="221.921668" style="stroke: #000000; stroke-width: 0.8"/>
      </g>
     </g>
     <g id="text_28">
      <!-- −2.0 -->
      <g transform="translate(361.565 225.740731) scale(0.11 -0.11)">
       <use xlink:href="#TimesNewRomanPSMT-2212"/>
       <use xlink:href="#TimesNewRomanPSMT-32" transform="translate(56.396484 0)"/>
       <use xlink:href="#TimesNewRomanPSMT-2e" transform="translate(106.396484 0)"/>
       <use xlink:href="#TimesNewRomanPSMT-30" transform="translate(131.396484 0)"/>
      </g>
     </g>
    </g>
    <g id="ytick_11">
     <g id="line2d_24">
      <g>
       <use xlink:href="#m5a2593b47c" x="385.017969" y="174.038006" style="stroke: #000000; stroke-width: 0.8"/>
      </g>
     </g>
     <g id="text_29">
      <!-- −1.5 -->
      <g transform="translate(361.565 177.857069) scale(0.11 -0.11)">
       <use xlink:href="#TimesNewRomanPSMT-2212"/>
       <use xlink:href="#TimesNewRomanPSMT-31" transform="translate(56.396484 0)"/>
       <use xlink:href="#TimesNewRomanPSMT-2e" transform="translate(106.396484 0)"/>
       <use xlink:href="#TimesNewRomanPSMT-35" transform="translate(131.396484 0)"/>
      </g>
     </g>
    </g>
    <g id="ytick_12">
     <g id="line2d_25">
      <g>
       <use xlink:href="#m5a2593b47c" x="385.017969" y="126.154344" style="stroke: #000000; stroke-width: 0.8"/>
      </g>
     </g>
     <g id="text_30">
      <!-- −1.0 -->
      <g transform="translate(361.565 129.973407) scale(0.11 -0.11)">
       <use xlink:href="#TimesNewRomanPSMT-2212"/>
       <use xlink:href="#TimesNewRomanPSMT-31" transform="translate(56.396484 0)"/>
       <use xlink:href="#TimesNewRomanPSMT-2e" transform="translate(106.396484 0)"/>
       <use xlink:href="#TimesNewRomanPSMT-30" transform="translate(131.396484 0)"/>
      </g>
     </g>
    </g>
    <g id="ytick_13">
     <g id="line2d_26">
      <g>
       <use xlink:href="#m5a2593b47c" x="385.017969" y="78.270682" style="stroke: #000000; stroke-width: 0.8"/>
      </g>
     </g>
     <g id="text_31">
      <!-- −0.5 -->
      <g transform="translate(361.565 82.089745) scale(0.11 -0.11)">
       <use xlink:href="#TimesNewRomanPSMT-2212"/>
       <use xlink:href="#TimesNewRomanPSMT-30" transform="translate(56.396484 0)"/>
       <use xlink:href="#TimesNewRomanPSMT-2e" transform="translate(106.396484 0)"/>
       <use xlink:href="#TimesNewRomanPSMT-35" transform="translate(131.396484 0)"/>
      </g>
     </g>
    </g>
    <g id="ytick_14">
     <g id="line2d_27">
      <g>
       <use xlink:href="#m5a2593b47c" x="385.017969" y="30.38702" style="stroke: #000000; stroke-width: 0.8"/>
      </g>
     </g>
     <g id="text_32">
      <!-- 0.0 -->
      <g transform="translate(367.767969 34.206083) scale(0.11 -0.11)">
       <use xlink:href="#TimesNewRomanPSMT-30"/>
       <use xlink:href="#TimesNewRomanPSMT-2e" transform="translate(50 0)"/>
       <use xlink:href="#TimesNewRomanPSMT-30" transform="translate(75 0)"/>
      </g>
     </g>
    </g>
    <g id="text_33">
     <!-- $\Delta R^2$ (GCN $-$ Linear) -->
     <g transform="translate(355.145 184.838125) rotate(-90) scale(0.11 -0.11)">
      <use xlink:href="#STIXGeneral-Regular-394" transform="translate(0 0.409375)"/>
      <use xlink:href="#STIXGeneral-Italic-52" transform="translate(72.199982 0.409375)"/>
      <use xlink:href="#STIXGeneral-Regular-32" transform="translate(143.925754 35.684375) scale(0.7)"/>
      <use xlink:href="#TimesNewRomanPSMT-20" transform="translate(183.335118 0.409375)"/>
      <use xlink:href="#TimesNewRomanPSMT-28" transform="translate(208.335118 0.409375)"/>
      <use xlink:href="#TimesNewRomanPSMT-47" transform="translate(241.635899 0.409375)"/>
      <use xlink:href="#TimesNewRomanPSMT-43" transform="translate(313.852696 0.409375)"/>
      <use xlink:href="#TimesNewRomanPSMT-4e" transform="translate(380.551915 0.409375)"/>
      <use xlink:href="#TimesNewRomanPSMT-20" transform="translate(452.768712 0.409375)"/>
      <use xlink:href="#STIXGeneral-Regular-2212" transform="translate(477.768712 0.409375)"/>
      <use xlink:href="#TimesNewRomanPSMT-20" transform="translate(546.268697 0.409375)"/>
      <use xlink:href="#TimesNewRomanPSMT-4c" transform="translate(571.268697 0.409375)"/>
      <use xlink:href="#TimesNewRomanPSMT-69" transform="translate(632.352681 0.409375)"/>
      <use xlink:href="#TimesNewRomanPSMT-6e" transform="translate(660.135884 0.409375)"/>
      <use xlink:href="#TimesNewRomanPSMT-65" transform="translate(710.135884 0.409375)"/>
      <use xlink:href="#TimesNewRomanPSMT-61" transform="translate(754.52065 0.409375)"/>
      <use xlink:href="#TimesNewRomanPSMT-72" transform="translate(798.905415 0.409375)"/>
      <use xlink:href="#TimesNewRomanPSMT-29" transform="translate(832.206197 0.409375)"/>
     </g>
    </g>
   </g>
   <g id="line2d_28">
    <path d="M 397.754469 35.639965 
L 400.327499 36.310568 
L 402.900529 36.981171 
L 405.47356 37.651773 
L 408.04659 38.322376 
L 410.61962 38.992979 
L 413.192651 39.663581 
L 415.765681 40.334184 
L 418.338711 41.004787 
L 420.911741 41.675389 
L 423.484772 42.345992 
L 426.057802 43.016595 
L 428.630832 43.687197 
L 431.203863 44.3578 
L 433.776893 45.028403 
L 436.349923 45.699005 
L 438.922954 46.369608 
L 441.495984 47.04021 
L 444.069014 47.710813 
L 446.642045 48.381416 
L 449.215075 49.052018 
L 451.788105 49.722621 
L 454.361135 50.393224 
L 456.934166 51.063826 
L 459.507196 51.734429 
L 462.080226 52.405032 
L 464.653257 53.075634 
L 467.226287 53.746237 
L 469.799317 54.41684 
L 472.372348 55.087442 
L 474.945378 55.758045 
L 477.518408 56.428648 
L 480.091438 57.09925 
L 482.664469 57.769853 
L 485.237499 58.440456 
L 487.810529 59.111058 
L 490.38356 59.781661 
L 492.95659 60.452263 
L 495.52962 61.122866 
L 498.102651 61.793469 
L 500.675681 62.464071 
L 503.248711 63.134674 
L 505.821741 63.805277 
L 508.394772 64.475879 
L 510.967802 65.146482 
L 513.540832 65.817085 
L 516.113863 66.487687 
L 518.686893 67.15829 
L 521.259923 67.828893 
L 523.832954 68.499495 
L 526.405984 69.170098 
L 528.979014 69.840701 
L 531.552045 70.511303 
L 534.125075 71.181906 
L 536.698105 71.852509 
L 539.271135 72.523111 
L 541.844166 73.193714 
L 544.417196 73.864317 
L 546.990226 74.534919 
L 549.563257 75.205522 
L 552.136287 75.876124 
L 554.709317 76.546727 
L 557.282348 77.21733 
L 559.855378 77.887932 
L 562.428408 78.558535 
L 565.001438 79.229138 
L 567.574469 79.89974 
L 570.147499 80.570343 
L 572.720529 81.240946 
L 575.29356 81.911548 
L 577.86659 82.582151 
L 580.43962 83.252754 
L 583.012651 83.923356 
L 585.585681 84.593959 
L 588.158711 85.264562 
L 590.731741 85.935164 
L 593.304772 86.605767 
L 595.877802 87.27637 
L 598.450832 87.946972 
L 601.023863 88.617575 
L 603.596893 89.288177 
L 606.169923 89.95878 
L 608.742954 90.629383 
L 611.315984 91.299985 
L 613.889014 91.970588 
L 616.462045 92.641191 
L 619.035075 93.311793 
L 621.608105 93.982396 
L 624.181135 94.652999 
L 626.754166 95.323601 
L 629.327196 95.994204 
L 631.900226 96.664807 
L 634.473257 97.335409 
L 637.046287 98.006012 
L 639.619317 98.676615 
L 642.192348 99.347217 
L 644.765378 100.01782 
L 647.338408 100.688423 
L 649.911438 101.359025 
L 652.484469 102.029628 
" clip-path="url(#p86ee1497b3)" style="fill: none; stroke-dasharray: 4.44,1.92; stroke-dashoffset: 0; stroke: #595959; stroke-width: 1.2"/>
   </g>
   <g id="patch_8">
    <path d="M 385.017969 253.578125 
L 385.017969 20.838125 
" style="fill: none; stroke: #000000; stroke-width: 0.8; stroke-linejoin: miter; stroke-linecap: square"/>
   </g>
   <g id="patch_9">
    <path d="M 665.220969 253.578125 
L 665.220969 20.838125 
" style="fill: none; stroke: #000000; stroke-width: 0.8; stroke-linejoin: miter; stroke-linecap: square"/>
   </g>
   <g id="patch_10">
    <path d="M 385.017969 253.578125 
L 665.220969 253.578125 
" style="fill: none; stroke: #000000; stroke-width: 0.8; stroke-linejoin: miter; stroke-linecap: square"/>
   </g>
   <g id="patch_11">
    <path d="M 385.017969 20.838125 
L 665.220969 20.838125 
" style="fill: none; stroke: #000000; stroke-width: 0.8; stroke-linejoin: miter; stroke-linecap: square"/>
   </g>
   <g id="PathCollection_7">
    <g clip-path="url(#p86ee1497b3)">
     <use xlink:href="#m9e0112af2d" x="406.281569" y="31.417216" style="fill: #4c72b0; fill-opacity: 0.85; stroke: #ffffff; stroke-opacity: 0.85; stroke-width: 0.5"/>
     <use xlink:href="#m9e0112af2d" x="445.971903" y="32.672428" style="fill: #4c72b0; fill-opacity: 0.85; stroke: #ffffff; stroke-opacity: 0.85; stroke-width: 0.5"/>
     <use xlink:href="#m9e0112af2d" x="442.655051" y="42.37651" style="fill: #4c72b0; fill-opacity: 0.85; stroke: #ffffff; stroke-opacity: 0.85; stroke-width: 0.5"/>
     <use xlink:href="#m9e0112af2d" x="398.69105" y="31.857435" style="fill: #4c72b0; fill-opacity: 0.85; stroke: #ffffff; stroke-opacity: 0.85; stroke-width: 0.5"/>
     <use xlink:href="#m9e0112af2d" x="397.754469" y="32.094436" style="fill: #4c72b0; fill-opacity: 0.85; stroke: #ffffff; stroke-opacity: 0.85; stroke-width: 0.5"/>
     <use xlink:href="#m9e0112af2d" x="419.333153" y="38.645738" style="fill: #4c72b0; fill-opacity: 0.85; stroke: #ffffff; stroke-opacity: 0.85; stroke-width: 0.5"/>
     <use xlink:href="#m9e0112af2d" x="443.131786" y="37.131987" style="fill: #4c72b0; fill-opacity: 0.85; stroke: #ffffff; stroke-opacity: 0.85; stroke-width: 0.5"/>
     <use xlink:href="#m9e0112af2d" x="403.732604" y="31.799567" style="fill: #4c72b0; fill-opacity: 0.85; stroke: #ffffff; stroke-opacity: 0.85; stroke-width: 0.5"/>
     <use xlink:href="#m9e0112af2d" x="430.4262" y="36.413335" style="fill: #4c72b0; fill-opacity: 0.85; stroke: #ffffff; stroke-opacity: 0.85; stroke-width: 0.5"/>
     <use xlink:href="#m9e0112af2d" x="399.633903" y="31.702009" style="fill: #4c72b0; fill-opacity: 0.85; stroke: #ffffff; stroke-opacity: 0.85; stroke-width: 0.5"/>
     <use xlink:href="#m9e0112af2d" x="407.895941" y="32.970072" style="fill: #4c72b0; fill-opacity: 0.85; stroke: #ffffff; stroke-opacity: 0.85; stroke-width: 0.5"/>
     <use xlink:href="#m9e0112af2d" x="406.347143" y="32.174897" style="fill: #4c72b0; fill-opacity: 0.85; stroke: #ffffff; stroke-opacity: 0.85; stroke-width: 0.5"/>
    </g>
   </g>
   <g id="PathCollection_8">
    <g clip-path="url(#p86ee1497b3)">
     <use xlink:href="#m43ec2309e3" x="586.653073" y="111.051032" style="fill: #c44e52; fill-opacity: 0.85; stroke: #ffffff; stroke-opacity: 0.85; stroke-width: 0.5"/>
     <use xlink:href="#m43ec2309e3" x="623.345412" y="53.268287" style="fill: #c44e52; fill-opacity: 0.85; stroke: #ffffff; stroke-opacity: 0.85; stroke-width: 0.5"/>
     <use xlink:href="#m43ec2309e3" x="582.971464" y="242.999034" style="fill: #c44e52; fill-opacity: 0.85; stroke: #ffffff; stroke-opacity: 0.85; stroke-width: 0.5"/>
     <use xlink:href="#m43ec2309e3" x="552.199169" y="129.723445" style="fill: #c44e52; fill-opacity: 0.85; stroke: #ffffff; stroke-opacity: 0.85; stroke-width: 0.5"/>
     <use xlink:href="#m43ec2309e3" x="512.951788" y="51.021112" style="fill: #c44e52; fill-opacity: 0.85; stroke: #ffffff; stroke-opacity: 0.85; stroke-width: 0.5"/>
     <use xlink:href="#m43ec2309e3" x="556.521953" y="144.472842" style="fill: #c44e52; fill-opacity: 0.85; stroke: #ffffff; stroke-opacity: 0.85; stroke-width: 0.5"/>
     <use xlink:href="#m43ec2309e3" x="573.042875" y="60.273012" style="fill: #c44e52; fill-opacity: 0.85; stroke: #ffffff; stroke-opacity: 0.85; stroke-width: 0.5"/>
     <use xlink:href="#m43ec2309e3" x="564.524597" y="69.910885" style="fill: #c44e52; fill-opacity: 0.85; stroke: #ffffff; stroke-opacity: 0.85; stroke-width: 0.5"/>
    </g>
   </g>
   <g id="PathCollection_9">
    <g clip-path="url(#p86ee1497b3)">
     <use xlink:href="#md9b51abed6" x="640.528577" y="96.427063" style="fill: #55a868; fill-opacity: 0.85; stroke: #ffffff; stroke-opacity: 0.85; stroke-width: 0.5"/>
     <use xlink:href="#md9b51abed6" x="605.675618" y="88.111401" style="fill: #55a868; fill-opacity: 0.85; stroke: #ffffff; stroke-opacity: 0.85; stroke-width: 0.5"/>
     <use xlink:href="#md9b51abed6" x="636.632813" y="62.370815" style="fill: #55a868; fill-opacity: 0.85; stroke: #ffffff; stroke-opacity: 0.85; stroke-width: 0.5"/>
     <use xlink:href="#md9b51abed6" x="647.609153" y="54.650164" style="fill: #55a868; fill-opacity: 0.85; stroke: #ffffff; stroke-opacity: 0.85; stroke-width: 0.5"/>
     <use xlink:href="#md9b51abed6" x="652.484469" y="58.144426" style="fill: #55a868; fill-opacity: 0.85; stroke: #ffffff; stroke-opacity: 0.85; stroke-width: 0.5"/>
     <use xlink:href="#md9b51abed6" x="610.992339" y="76.503367" style="fill: #55a868; fill-opacity: 0.85; stroke: #ffffff; stroke-opacity: 0.85; stroke-width: 0.5"/>
    </g>
   </g>
   <g id="text_34">
    <!-- Pearson $r=-0.52$ ($p=0.006$) -->
    <g transform="translate(396.226089 228.154475) scale(0.09 -0.09)">
     <defs>
      <path id="STIXGeneral-Regular-35" d="M 2803 4358 
L 2573 3814 
Q 2534 3731 2400 3731 
L 1158 3731 
L 902 3187 
Q 1606 3053 1920 2896 
Q 2234 2739 2502 2368 
Q 2726 2061 2726 1555 
Q 2726 1094 2576 780 
Q 2426 467 2099 224 
Q 1664 -90 1011 -90 
Q 646 -90 422 19 
Q 198 128 198 307 
Q 198 550 486 550 
Q 717 550 960 352 
Q 1210 147 1414 147 
Q 1747 147 2012 480 
Q 2278 813 2278 1229 
Q 2278 1843 1850 2189 
Q 1293 2637 486 2637 
Q 410 2637 410 2688 
L 416 2720 
L 1114 4237 
L 2438 4237 
Q 2547 4237 2608 4269 
Q 2669 4301 2746 4403 
L 2803 4358 
z
" transform="scale(0.015625)"/>
      <path id="STIXGeneral-Regular-36" d="M 2854 4378 
L 2867 4275 
Q 2112 4154 1606 3664 
Q 1101 3174 973 2451 
Q 1344 2739 1786 2739 
Q 2349 2739 2672 2380 
Q 2995 2022 2995 1402 
Q 2995 774 2669 378 
Q 2291 -90 1651 -90 
Q 870 -90 518 557 
Q 218 1107 218 1786 
Q 218 2835 915 3552 
Q 1312 3962 1731 4131 
Q 2150 4301 2854 4378 
z
M 2419 1203 
Q 2419 2445 1555 2445 
Q 1235 2445 1024 2275 
Q 813 2106 813 1702 
Q 813 954 1046 522 
Q 1280 90 1722 90 
Q 2061 90 2240 394 
Q 2419 698 2419 1203 
z
" transform="scale(0.015625)"/>
     </defs>
     <use xlink:href="#TimesNewRomanPSMT-50" transform="translate(0 0.5625)"/>
     <use xlink:href="#TimesNewRomanPSMT-65" transform="translate(55.615234 0.5625)"/>
     <use xlink:href="#TimesNewRomanPSMT-61" transform="translate(100 0.5625)"/>
     <use xlink:href="#TimesNewRomanPSMT-72" transform="translate(144.384766 0.5625)"/>
     <use xlink:href="#TimesNewRomanPSMT-73" transform="translate(177.685547 0.5625)"/>
     <use xlink:href="#TimesNewRomanPSMT-6f" transform="translate(216.601562 0.5625)"/>
     <use xlink:href="#TimesNewRomanPSMT-6e" transform="translate(266.601562 0.5625)"/>
     <use xlink:href="#TimesNewRomanPSMT-20" transform="translate(316.601562 0.5625)"/>
     <use xlink:href="#STIXGeneral-Italic-72" transform="translate(341.601562 0.5625)"/>
     <use xlink:href="#STIXGeneral-Regular-3d" transform="translate(394.941553 0.5625)"/>
     <use xlink:href="#STIXGeneral-Regular-2212" transform="translate(477.881534 0.5625)"/>
     <use xlink:href="#STIXGeneral-Regular-30" transform="translate(546.381519 0.5625)"/>
     <use xlink:href="#STIXGeneral-Regular-2e" transform="translate(596.381503 0.5625)"/>
     <use xlink:href="#STIXGeneral-Regular-35" transform="translate(621.381488 0.5625)"/>
     <use xlink:href="#STIXGeneral-Regular-32" transform="translate(671.381473 0.5625)"/>
     <use xlink:href="#TimesNewRomanPSMT-20" transform="translate(721.381458 0.5625)"/>
     <use xlink:href="#TimesNewRomanPSMT-28" transform="translate(746.381458 0.5625)"/>
     <use xlink:href="#STIXGeneral-Italic-70" transform="translate(779.682239 0.5625)"/>
     <use xlink:href="#STIXGeneral-Regular-3d" transform="translate(844.522229 0.5625)"/>
     <use xlink:href="#STIXGeneral-Regular-30" transform="translate(927.46221 0.5625)"/>
     <use xlink:href="#STIXGeneral-Regular-2e" transform="translate(977.462195 0.5625)"/>
     <use xlink:href="#STIXGeneral-Regular-30" transform="translate(1002.46218 0.5625)"/>
     <use xlink:href="#STIXGeneral-Regular-30" transform="translate(1052.462164 0.5625)"/>
     <use xlink:href="#STIXGeneral-Regular-36" transform="translate(1102.462149 0.5625)"/>
     <use xlink:href="#TimesNewRomanPSMT-29" transform="translate(1152.462134 0.5625)"/>
    </g>
    <!-- Spearman $\rho=-0.77$ -->
    <g transform="translate(396.226089 237.633725) scale(0.09 -0.09)">
     <use xlink:href="#TimesNewRomanPSMT-53" transform="translate(0 0.28125)"/>
     <use xlink:href="#TimesNewRomanPSMT-70" transform="translate(55.615234 0.28125)"/>
     <use xlink:href="#TimesNewRomanPSMT-65" transform="translate(105.615234 0.28125)"/>
     <use xlink:href="#TimesNewRomanPSMT-61" transform="translate(150 0.28125)"/>
     <use xlink:href="#TimesNewRomanPSMT-72" transform="translate(194.384766 0.28125)"/>
     <use xlink:href="#TimesNewRomanPSMT-6d" transform="translate(227.685547 0.28125)"/>
     <use xlink:href="#TimesNewRomanPSMT-61" transform="translate(305.46875 0.28125)"/>
     <use xlink:href="#TimesNewRomanPSMT-6e" transform="translate(349.853516 0.28125)"/>
     <use xlink:href="#TimesNewRomanPSMT-20" transform="translate(399.853516 0.28125)"/>
     <use xlink:href="#STIXGeneral-Italic-3c1" transform="translate(424.853516 0.28125)"/>
     <use xlink:href="#STIXGeneral-Regular-3d" transform="translate(489.693506 0.28125)"/>
     <use xlink:href="#STIXGeneral-Regular-2212" transform="translate(572.633487 0.28125)"/>
     <use xlink:href="#STIXGeneral-Regular-30" transform="translate(641.133472 0.28125)"/>
     <use xlink:href="#STIXGeneral-Regular-2e" transform="translate(691.133456 0.28125)"/>
     <use xlink:href="#STIXGeneral-Regular-37" transform="translate(716.133441 0.28125)"/>
     <use xlink:href="#STIXGeneral-Regular-37" transform="translate(766.133426 0.28125)"/>
    </g>
   </g>
   <g id="text_35">
    <!-- Correlation topology -->
    <g transform="translate(479.140328 14.838125) scale(0.11 -0.11)">
     <use xlink:href="#TimesNewRomanPSMT-43"/>
     <use xlink:href="#TimesNewRomanPSMT-6f" transform="translate(66.699219 0)"/>
     <use xlink:href="#TimesNewRomanPSMT-72" transform="translate(116.699219 0)"/>
     <use xlink:href="#TimesNewRomanPSMT-72" transform="translate(150 0)"/>
     <use xlink:href="#TimesNewRomanPSMT-65" transform="translate(183.300781 0)"/>
     <use xlink:href="#TimesNewRomanPSMT-6c" transform="translate(227.685547 0)"/>
     <use xlink:href="#TimesNewRomanPSMT-61" transform="translate(255.46875 0)"/>
     <use xlink:href="#TimesNewRomanPSMT-74" transform="translate(299.853516 0)"/>
     <use xlink:href="#TimesNewRomanPSMT-69" transform="translate(327.636719 0)"/>
     <use xlink:href="#TimesNewRomanPSMT-6f" transform="translate(355.419922 0)"/>
     <use xlink:href="#TimesNewRomanPSMT-6e" transform="translate(405.419922 0)"/>
     <use xlink:href="#TimesNewRomanPSMT-20" transform="translate(455.419922 0)"/>
     <use xlink:href="#TimesNewRomanPSMT-74" transform="translate(480.419922 0)"/>
     <use xlink:href="#TimesNewRomanPSMT-6f" transform="translate(508.203125 0)"/>
     <use xlink:href="#TimesNewRomanPSMT-70" transform="translate(558.203125 0)"/>
     <use xlink:href="#TimesNewRomanPSMT-6f" transform="translate(608.203125 0)"/>
     <use xlink:href="#TimesNewRomanPSMT-6c" transform="translate(658.203125 0)"/>
     <use xlink:href="#TimesNewRomanPSMT-6f" transform="translate(685.986328 0)"/>
     <use xlink:href="#TimesNewRomanPSMT-67" transform="translate(735.986328 0)"/>
     <use xlink:href="#TimesNewRomanPSMT-79" transform="translate(785.986328 0)"/>
    </g>
   </g>
  </g>
 </g>
 <defs>
  <clipPath id="p2d8810d0b7">
   <rect x="51.702969" y="20.838125" width="280.203" height="232.74"/>
  </clipPath>
  <clipPath id="p86ee1497b3">
   <rect x="385.017969" y="20.838125" width="280.203" height="232.74"/>
  </clipPath>
 </defs>
</svg>
